<svg version="1.1" id="Layer_1" xmlns="http://www.w3.org/2000/svg" xmlns:xlink="http://www.w3.org/1999/xlink" x="0px" y="0px"
	 width="100%" viewBox="0 0 1611 366" enable-background="new 0 0 1611 366" xml:space="preserve">
<path fill="#000000" opacity="1.000000" stroke="none" 
	d="
M1077.000000,367.000000 
	C718.045288,367.000000 359.590607,367.000000 1.067951,367.000000 
	C1.067951,245.060745 1.067951,123.121452 1.067951,1.091075 
	C538.000000,1.091075 1075.000000,1.091075 1611.966064,1.091075 
	C1611.966064,123.076149 1611.966064,245.038086 1611.966064,367.000000 
	C1433.787964,367.000000 1255.644043,367.000000 1077.000000,367.000000 
M12.043639,178.964951 
	C12.000817,183.321747 11.957994,187.678528 11.136764,192.422379 
	C11.094055,193.419449 11.014142,194.416519 11.013968,195.413589 
	C11.004751,248.234818 11.001561,301.056061 11.004764,353.877289 
	C11.004821,354.823944 11.089816,355.770599 11.134558,356.704285 
	C541.593079,356.704285 1071.697021,356.704285 1601.831665,356.704285 
	C1601.831665,318.940125 1601.831665,281.472687 1601.986938,243.078415 
	C1601.935181,208.716995 1601.883423,174.355576 1601.986206,139.068909 
	C1601.986206,96.467110 1601.986206,53.865314 1601.986206,11.258972 
	C1071.406860,11.258972 541.339722,11.258972 11.130079,11.258972 
	C11.076756,12.149406 11.004889,12.789450 11.004873,13.429496 
	C11.003522,66.762138 11.002069,120.094795 11.048695,173.427399 
	C11.049720,174.600388 11.604455,175.772903 12.051933,177.499435 
	C12.099087,177.684891 12.146240,177.870346 12.043639,178.964951 
z"/>
<path fill="#FEFFFF" opacity="1.000000" stroke="none" 
	d="
M1601.831665,244.005234 
	C1601.831665,281.472687 1601.831665,318.940125 1601.831665,356.704285 
	C1071.697021,356.704285 541.593079,356.704285 11.134558,356.704285 
	C11.089816,355.770599 11.004821,354.823944 11.004764,353.877289 
	C11.001561,301.056061 11.004751,248.234818 11.013968,195.413589 
	C11.014142,194.416519 11.094055,193.419449 11.560989,192.677582 
	C12.914914,199.977676 13.844613,207.022568 14.756712,214.488098 
	C17.728771,232.220596 23.167603,248.675018 31.933973,264.258240 
	C32.191120,264.825775 32.430077,265.105896 32.638206,265.333740 
	C32.607376,265.281464 32.562294,265.394165 32.666649,265.723846 
	C39.829044,276.067566 46.887081,286.081635 54.052269,296.413849 
	C64.096489,308.743958 75.893883,318.609222 89.190628,327.184448 
	C89.891495,327.666992 90.420944,327.907288 91.042877,328.376770 
	C91.383011,328.872040 91.685020,328.969269 92.253151,329.165466 
	C101.192482,333.824493 109.660019,338.862244 118.692543,342.495331 
	C158.386292,358.461212 198.748627,359.717377 239.209259,345.819672 
	C250.528214,341.931763 261.104004,335.880310 272.270966,330.812012 
	C272.729950,330.552124 272.938721,330.301575 273.425537,330.013550 
	C273.952362,329.713135 274.201111,329.450134 274.778564,329.126953 
	C288.987061,320.219177 301.683350,309.997314 312.114929,297.152893 
	C312.089325,297.130402 312.096466,297.197815 312.355408,297.095337 
	C312.785522,296.673462 312.956726,296.354126 313.363342,295.962311 
	C313.888031,295.675934 314.023804,295.389252 314.243530,294.940369 
	C314.630066,294.559906 314.779114,294.268951 314.961426,293.984680 
	C314.994690,293.991333 314.967163,293.929382 315.232910,293.814117 
	C315.792725,293.208710 316.086792,292.718597 316.298401,292.203705 
	C316.215912,292.178955 316.253174,292.347137 316.508636,292.229248 
	C316.916504,291.775208 317.068909,291.439026 317.167328,291.097595 
	C317.113342,291.092316 317.148010,291.195129 317.438019,291.049835 
	C318.580505,289.676025 319.433014,288.447510 320.225525,287.192413 
	C320.165527,287.165833 320.184174,287.295715 320.446350,287.184448 
	C320.861450,286.733612 321.014374,286.393982 321.404053,285.964722 
	C321.755829,285.568939 321.870850,285.262756 322.249146,284.814850 
	C322.779480,284.145294 323.046539,283.617523 323.594940,282.917542 
	C327.261322,277.159790 330.646393,271.574280 334.304504,265.777313 
	C344.413055,247.203201 350.968079,227.782791 353.622925,206.698944 
	C353.815765,205.574844 353.830902,204.799377 353.939514,203.692459 
	C354.011963,202.905685 353.990936,202.450394 354.127258,201.612289 
	C354.440002,191.821304 354.595306,182.413132 354.817444,172.664215 
	C354.780121,171.877594 354.675995,171.431702 354.640137,170.596252 
	C354.407227,167.822098 354.106079,165.437531 353.856079,162.632751 
	C351.295837,141.707504 345.111938,122.344315 335.633270,103.973305 
	C302.178986,39.134068 226.846603,1.477591 155.693970,14.262675 
	C104.549065,23.452663 64.863060,49.995216 37.198921,93.973427 
	C21.859598,118.358650 13.504476,145.158722 12.109289,174.356873 
	C12.068681,175.102112 12.109719,175.532028 12.060329,176.200745 
	C11.946900,176.608246 11.923898,176.776932 11.900896,176.945633 
	C11.604455,175.772903 11.049720,174.600388 11.048695,173.427399 
	C11.002069,120.094795 11.003522,66.762138 11.004873,13.429496 
	C11.004889,12.789450 11.076756,12.149406 11.130079,11.258972 
	C541.339722,11.258972 1071.406860,11.258972 1601.986206,11.258972 
	C1601.986206,53.865314 1601.986206,96.467110 1601.726807,139.533966 
	C1601.467529,139.999008 1601.103271,140.008545 1600.822998,139.678711 
	C1593.081299,139.348862 1585.619751,139.348862 1577.445801,139.348862 
	C1577.445801,143.156738 1577.445801,146.815887 1577.445801,151.172150 
	C1576.293457,150.227203 1575.906006,149.967041 1575.587402,149.639801 
	C1552.016479,125.436592 1512.656250,129.402390 1494.755371,157.937485 
	C1484.582153,174.154007 1483.384399,191.862900 1488.158691,209.866913 
	C1498.890991,250.338928 1545.972290,263.100525 1575.486328,233.800125 
	C1575.881958,233.407349 1576.438965,233.177078 1577.606445,232.435211 
	C1577.606445,236.732803 1577.606445,240.315994 1577.606445,243.985611 
	C1585.730225,243.985611 1593.359741,243.985611 1601.199951,243.992996 
	C1601.410400,244.000381 1601.831665,244.005234 1601.831665,244.005234 
M945.095215,145.235992 
	C944.763184,145.067734 944.431152,144.899475 943.763306,144.162109 
	C923.530090,129.162506 895.257690,130.280869 877.350891,147.656174 
	C859.110718,165.354919 855.858215,187.566696 862.651062,210.857468 
	C875.748535,255.764648 926.859253,260.140717 949.945557,233.371262 
	C950.272461,232.992249 950.916565,232.886734 951.876953,232.435303 
	C951.876953,236.610809 951.876953,240.217926 951.876953,244.020844 
	C959.114258,244.020844 966.056396,244.020844 973.888245,244.183441 
	C974.271667,242.567047 974.983398,240.951782 974.988953,239.334091 
	C975.064331,217.564606 975.041443,195.794754 975.042358,174.025009 
	C975.042786,163.721771 975.113037,153.417404 974.950562,143.116714 
	C974.930725,141.856033 973.661438,140.615051 972.052429,139.195297 
	C965.713440,139.256165 959.374451,139.317032 952.325867,139.341431 
	C952.190308,141.903641 952.054688,144.465851 951.707092,147.714203 
	C951.776855,148.421524 951.846619,149.128845 951.397461,150.396759 
	C950.907227,150.362289 950.416931,150.327820 949.673950,149.689438 
	C948.725220,148.812927 947.776489,147.936417 946.613770,146.545074 
	C946.151550,146.253769 945.689331,145.962463 945.180054,145.799515 
	C945.180054,145.799515 945.311768,145.762802 945.095215,145.235992 
M1283.174438,139.214783 
	C1282.731201,140.956131 1281.905884,142.696548 1281.901611,144.438995 
	C1281.823120,176.561951 1281.842896,208.685150 1281.841919,240.808289 
	C1281.841797,242.423996 1281.841797,244.039688 1281.841797,245.726471 
	C1289.823853,245.726471 1297.346191,245.726471 1305.051514,245.726471 
	C1305.051514,223.247177 1305.051514,201.125839 1305.334839,178.477371 
	C1305.342651,177.902252 1305.350586,177.327133 1305.854858,176.170227 
	C1306.221680,174.451462 1306.588501,172.732697 1307.200439,170.741806 
	C1307.200439,170.741806 1307.144897,170.379883 1307.659790,169.961639 
	C1307.832397,169.326385 1308.004883,168.691132 1308.726562,167.678207 
	C1315.135254,156.919327 1326.256470,152.060211 1339.030640,154.437500 
	C1351.053223,156.674911 1358.597534,164.292511 1360.695679,176.771683 
	C1361.326172,180.521698 1361.312256,184.405685 1361.326172,188.229263 
	C1361.387451,205.054398 1361.350952,221.879868 1361.349976,238.705215 
	C1361.349731,240.999344 1361.349854,243.293457 1361.349854,245.823074 
	C1369.213623,245.823074 1376.604858,245.823074 1384.369507,245.823074 
	C1384.369507,229.112106 1384.313110,212.650238 1384.398682,196.189087 
	C1384.430664,190.033661 1384.411011,183.837875 1385.083008,177.734009 
	C1386.578613,164.145615 1396.415894,154.983414 1409.887329,154.090683 
	C1425.245728,153.072891 1436.314941,160.432373 1439.570557,174.217194 
	C1440.517090,178.224808 1440.820068,182.460114 1440.850586,186.595276 
	C1440.985107,204.752335 1440.911987,222.910950 1440.913818,241.069000 
	C1440.914062,242.660553 1440.913818,244.252106 1440.913818,245.710724 
	C1448.953735,245.710724 1456.345581,245.710724 1463.845703,245.710724 
	C1463.845703,222.873642 1464.401855,200.383408 1463.695312,177.932922 
	C1462.927368,153.530380 1448.463257,137.356369 1425.110718,134.387375 
	C1405.584717,131.904892 1389.433716,138.261261 1378.485962,155.464981 
	C1360.291504,129.767120 1330.367065,126.281288 1306.307617,146.956100 
	C1306.029663,147.195038 1305.364258,146.983307 1305.010376,146.124191 
	C1304.097656,143.949051 1307.202271,140.559998 1302.059204,139.196167 
	C1296.046631,139.259949 1290.034180,139.323715 1283.174438,139.214783 
M1110.804932,267.109039 
	C1110.977295,266.053406 1111.149658,264.997742 1111.349609,263.830017 
	C1111.349609,263.830017 1111.298340,263.726593 1111.802124,263.117188 
	C1111.874878,262.078430 1111.947632,261.039703 1112.340088,259.386292 
	C1112.464478,258.251282 1112.588989,257.116302 1112.954224,255.072800 
	C1113.002197,217.743195 1113.051392,180.413574 1113.092896,143.083969 
	C1113.093994,142.088181 1113.214111,141.015900 1112.880249,140.129303 
	C1112.717896,139.698502 1111.633423,139.614929 1110.050415,139.193649 
	C1104.042236,139.249359 1098.034180,139.305054 1091.341919,139.165695 
	C1090.893799,139.776566 1090.445801,140.387436 1089.813354,141.870010 
	C1089.813354,144.764389 1089.813354,147.658783 1089.813354,151.384659 
	C1088.533203,150.217194 1088.041626,149.813675 1087.600952,149.360641 
	C1068.946533,130.181686 1038.396240,128.486603 1017.794861,145.492386 
	C1000.199951,160.016418 993.256714,186.330551 1000.543579,210.774445 
	C1013.505188,254.253967 1064.324097,261.258881 1088.284058,232.868362 
	C1088.511597,232.598755 1089.081787,232.618469 1089.299561,232.557220 
	C1089.299561,240.324493 1089.921265,248.007492 1089.169067,255.553528 
	C1087.637207,270.921082 1079.182007,279.951599 1064.957886,282.628998 
	C1049.254150,285.584900 1034.001953,278.919800 1027.310791,266.309937 
	C1026.728271,265.212280 1025.366943,263.822479 1024.326538,263.787720 
	C1017.544434,263.561066 1010.751160,263.671234 1003.557800,263.671234 
	C1005.079529,278.093231 1012.205078,288.332397 1024.093262,294.822968 
	C1043.479126,305.406952 1063.870728,306.509033 1084.208496,297.988556 
	C1097.617188,292.370972 1106.464966,282.009674 1110.804932,267.109039 
M475.396759,213.145096 
	C479.071136,221.330902 483.481171,229.279800 486.214874,237.768539 
	C488.996124,246.404968 493.814026,249.326187 502.548035,248.154190 
	C505.983246,247.693237 507.679932,246.866684 509.078400,243.666504 
	C519.325684,220.217163 529.783081,196.859558 540.194885,173.482224 
	C543.187378,166.763199 546.247620,160.074371 549.276855,153.371704 
	C549.625427,153.450912 549.973938,153.530136 550.322510,153.609344 
	C550.322510,184.970688 550.322510,216.332016 550.322510,247.672455 
	C558.277039,247.672455 565.689270,247.672455 573.170471,247.672455 
	C573.170471,200.463242 573.170471,153.546875 573.170471,106.257385 
	C566.379272,106.257385 559.900879,106.434769 553.438843,106.185471 
	C550.007141,106.053078 548.205200,107.005943 546.736633,110.379410 
	C537.319153,132.012054 527.610413,153.517929 517.992371,175.063187 
	C511.863129,188.793167 505.725220,202.519272 499.240692,217.031586 
	C498.160889,214.815613 497.417603,213.391434 496.761139,211.928284 
	C481.592529,178.119919 466.459229,144.295624 451.195801,110.530167 
	C450.436523,108.850548 448.624146,106.535461 447.194977,106.456543 
	C439.763611,106.046173 432.297455,106.265404 424.576782,106.265404 
	C424.576782,153.682571 424.576782,200.581299 424.576782,247.579987 
	C432.349915,247.579987 439.874207,247.579987 447.864838,247.579987 
	C447.864838,216.020142 447.864838,184.845993 447.864838,153.671860 
	C448.154144,153.614761 448.443451,153.557678 448.732727,153.500580 
	C457.514679,173.152267 466.296600,192.803955 475.396759,213.145096 
M787.783325,135.591492 
	C770.477051,131.462906 754.704224,134.600647 740.966309,146.046600 
	C718.660217,164.631226 715.081970,203.527283 732.934753,228.451828 
	C752.378174,255.597229 792.604614,256.476501 811.919006,233.195007 
	C812.163269,232.900620 812.686523,232.837601 813.713867,232.390610 
	C813.713867,236.544891 813.713867,240.272110 813.713867,244.011368 
	C821.705994,244.011368 829.130249,244.011368 836.576172,244.011368 
	C836.576172,194.935776 836.576172,146.106995 836.576172,97.408905 
	C828.747864,97.408905 821.333557,97.408905 813.362549,97.408905 
	C813.362549,115.056152 813.362549,132.404205 813.362549,150.861984 
	C805.921936,143.007263 797.867676,138.334274 787.783325,135.591492 
M1237.514404,244.253860 
	C1241.949585,244.253860 1246.384888,244.253860 1250.827148,244.253860 
	C1250.827148,208.956665 1250.827148,174.243866 1250.827148,139.433075 
	C1243.090942,139.433075 1235.678589,139.433075 1227.671753,139.433075 
	C1227.671753,143.345154 1227.671753,146.998734 1227.671753,151.186020 
	C1226.667603,150.319916 1226.267822,150.022003 1225.922485,149.670654 
	C1201.245361,124.565849 1160.642578,129.856903 1143.481567,160.503387 
	C1135.830811,174.166382 1134.228271,188.952423 1137.126953,204.064880 
	C1141.099365,224.775620 1152.072876,240.471695 1172.793457,247.082535 
	C1193.102539,253.562057 1211.204224,249.001556 1226.127319,233.325638 
	C1226.492432,232.942062 1227.068481,232.759247 1228.154541,232.130600 
	C1228.154541,236.571274 1228.154541,240.320709 1228.154541,244.254379 
	C1231.215332,244.254379 1233.868408,244.254379 1237.514404,244.253860 
M641.359131,228.471786 
	C628.373718,223.575455 620.173218,212.412186 621.157776,200.313019 
	C649.308411,200.313019 677.513916,200.313019 705.755493,200.313019 
	C707.513611,186.586197 706.551453,173.812134 700.448059,161.800995 
	C687.355530,136.035706 653.281616,125.934006 625.577393,139.766724 
	C606.385803,149.349060 598.007324,165.968552 596.482788,186.559250 
	C593.981079,220.348007 614.211731,246.729538 647.427063,249.671478 
	C670.702271,251.733002 692.073792,240.240417 701.403442,219.744766 
	C702.108765,218.195328 702.616516,216.555954 703.387329,214.502136 
	C695.379150,214.502136 688.223022,214.414139 681.073181,214.585312 
	C679.823853,214.615219 678.064636,215.403610 677.446411,216.402252 
	C668.968323,230.097229 656.412231,231.875961 641.359131,228.471786 
z"/>
<path fill="#1F7691" opacity="1.000000" stroke="none" 
	d="
M12.190937,174.041519 
	C13.504476,145.158722 21.859598,118.358650 37.198921,93.973427 
	C64.863060,49.995216 104.549065,23.452663 155.693970,14.262675 
	C226.846603,1.477591 302.178986,39.134068 335.633270,103.973305 
	C345.111938,122.344315 351.295837,141.707504 353.612305,162.921631 
	C353.735596,166.082413 354.153748,168.534119 354.571869,170.985809 
	C354.675995,171.431702 354.780121,171.877594 354.474121,172.757050 
	C352.834534,175.846420 351.605011,178.502243 350.358368,181.195129 
	C348.024353,180.276443 346.444031,179.654404 344.636627,178.942993 
	C344.114746,181.954727 343.677704,184.476944 343.166199,186.546600 
	C343.135498,182.728333 343.179260,179.362625 343.555237,175.914856 
	C343.471863,172.498001 343.056274,169.163193 342.445312,165.500793 
	C342.095062,163.684082 341.993866,162.187119 341.777557,160.706985 
	C328.981232,73.141922 248.512085,12.924215 160.643768,25.949684 
	C101.405090,34.731140 60.071659,67.673790 35.892162,122.249809 
	C27.623528,140.913101 24.904390,160.833023 23.391937,180.836975 
	C19.961073,181.638779 16.815918,182.616684 13.615039,183.611938 
	C13.128411,181.710068 12.660904,179.882935 12.193396,178.055801 
	C12.146240,177.870346 12.099087,177.684891 11.976414,177.222534 
	C11.923898,176.776932 11.946900,176.608246 12.258753,176.056763 
	C12.428714,175.129807 12.309826,174.585663 12.190937,174.041519 
z"/>
<path fill="#126A85" opacity="1.000000" stroke="none" 
	d="
M12.118518,178.510376 
	C12.660904,179.882935 13.128411,181.710068 13.615039,183.611938 
	C16.815918,182.616684 19.961073,181.638779 23.462736,181.293182 
	C23.779398,185.631409 23.739552,189.337341 23.501266,193.247177 
	C23.473986,194.291016 23.645145,195.130951 23.895042,196.407379 
	C24.566265,202.247742 25.158751,207.651596 25.543869,213.278076 
	C25.600220,214.351624 25.863935,215.202515 26.222607,216.128571 
	C26.317560,216.203705 26.247755,216.435593 26.114277,216.798981 
	C24.689775,218.903534 23.398754,220.644714 21.790131,222.814224 
	C19.014736,219.354080 16.894524,216.710770 14.774311,214.067459 
	C13.844613,207.022568 12.914914,199.977676 11.950193,192.484055 
	C11.957994,187.678528 12.000817,183.321747 12.118518,178.510376 
z"/>
<path fill="#F1FFFF" opacity="1.000000" stroke="none" 
	d="
M1601.103271,140.008545 
	C1601.103271,140.008545 1601.467529,139.999008 1601.649658,139.996582 
	C1601.883423,174.355576 1601.935181,208.716995 1601.909302,243.541824 
	C1601.831665,244.005234 1601.410400,244.000381 1601.195312,243.525742 
	C1601.021362,208.703583 1601.062256,174.356064 1601.103271,140.008545 
z"/>
<path fill="#063D54" opacity="1.000000" stroke="none" 
	d="
M475.237671,212.800369 
	C466.296600,192.803955 457.514679,173.152267 448.732727,153.500580 
	C448.443451,153.557678 448.154144,153.614761 447.864838,153.671860 
	C447.864838,184.845993 447.864838,216.020142 447.864838,247.579987 
	C439.874207,247.579987 432.349915,247.579987 424.576782,247.579987 
	C424.576782,200.581299 424.576782,153.682571 424.576782,106.265404 
	C432.297455,106.265404 439.763611,106.046173 447.194977,106.456543 
	C448.624146,106.535461 450.436523,108.850548 451.195801,110.530167 
	C466.459229,144.295624 481.592529,178.119919 496.761139,211.928284 
	C497.417603,213.391434 498.160889,214.815613 499.240692,217.031586 
	C505.725220,202.519272 511.863129,188.793167 517.992371,175.063187 
	C527.610413,153.517929 537.319153,132.012054 546.736633,110.379410 
	C548.205200,107.005943 550.007141,106.053078 553.438843,106.185471 
	C559.900879,106.434769 566.379272,106.257385 573.170471,106.257385 
	C573.170471,153.546875 573.170471,200.463242 573.170471,247.672455 
	C565.689270,247.672455 558.277039,247.672455 550.322510,247.672455 
	C550.322510,216.332016 550.322510,184.970688 550.322510,153.609344 
	C549.973938,153.530136 549.625427,153.450912 549.276855,153.371704 
	C546.247620,160.074371 543.187378,166.763199 540.194885,173.482224 
	C529.783081,196.859558 519.325684,220.217163 509.078400,243.666504 
	C507.679932,246.866684 505.983246,247.693237 502.548035,248.154190 
	C493.814026,249.326187 488.996124,246.404968 486.214874,237.768539 
	C483.481171,229.279800 479.071136,221.330902 475.237671,212.800369 
z"/>
<path fill="#043B53" opacity="1.000000" stroke="none" 
	d="
M1112.713379,255.981308 
	C1112.588989,257.116302 1112.464478,258.251282 1111.889160,259.968445 
	C1111.391479,261.609283 1111.344849,262.667938 1111.298340,263.726593 
	C1111.298340,263.726593 1111.349609,263.830017 1110.985352,264.125153 
	C1110.504883,265.518768 1110.388916,266.617279 1110.272827,267.715759 
	C1106.464966,282.009674 1097.617188,292.370972 1084.208496,297.988556 
	C1063.870728,306.509033 1043.479126,305.406952 1024.093262,294.822968 
	C1012.205078,288.332397 1005.079529,278.093231 1003.557800,263.671234 
	C1010.751160,263.671234 1017.544434,263.561066 1024.326538,263.787720 
	C1025.366943,263.822479 1026.728271,265.212280 1027.310791,266.309937 
	C1034.001953,278.919800 1049.254150,285.584900 1064.957886,282.628998 
	C1079.182007,279.951599 1087.637207,270.921082 1089.169067,255.553528 
	C1089.921265,248.007492 1089.299561,240.324493 1089.299561,232.557220 
	C1089.081787,232.618469 1088.511597,232.598755 1088.284058,232.868362 
	C1064.324097,261.258881 1013.505188,254.253967 1000.543579,210.774445 
	C993.256714,186.330551 1000.199951,160.016418 1017.794861,145.492386 
	C1038.396240,128.486603 1068.946533,130.181686 1087.600952,149.360641 
	C1088.041626,149.813675 1088.533203,150.217194 1089.813354,151.384659 
	C1089.813354,147.658783 1089.813354,144.764389 1090.198364,141.406616 
	C1091.064331,140.415756 1091.545166,139.888260 1092.026001,139.360764 
	C1098.034180,139.305054 1104.042236,139.249359 1110.590332,139.671753 
	C1111.423340,142.259613 1111.968872,144.369003 1111.972046,146.479218 
	C1112.025024,181.209854 1111.999390,215.940628 1112.039673,250.671310 
	C1112.041748,252.441559 1112.478882,254.211319 1112.713379,255.981308 
M1042.451294,156.753006 
	C1032.215820,161.108124 1025.782715,168.973465 1023.276428,179.526733 
	C1021.918823,185.243484 1021.670776,191.449677 1022.144897,197.336594 
	C1024.267944,223.699432 1052.423096,238.218521 1073.828857,224.111450 
	C1084.205566,217.272766 1088.572388,206.971069 1089.663330,194.938385 
	C1092.211670,166.834991 1069.242310,147.770264 1042.451294,156.753006 
z"/>
<path fill="#033B53" opacity="1.000000" stroke="none" 
	d="
M1305.358398,176.752014 
	C1305.350586,177.327133 1305.342651,177.902252 1304.885254,179.024719 
	C1304.290527,181.380264 1304.022095,183.188217 1304.018921,184.996643 
	C1303.987671,203.161057 1303.911865,221.326263 1304.067749,239.489395 
	C1304.102295,243.518539 1302.955200,245.386353 1298.682495,245.058289 
	C1295.203491,244.791153 1291.662598,244.742081 1288.194336,245.071243 
	C1283.954834,245.473602 1282.887451,243.825745 1282.909546,239.727493 
	C1283.069092,210.065292 1282.958496,180.401733 1283.040405,150.738907 
	C1283.050903,146.954224 1283.679443,143.171265 1284.021606,139.387497 
	C1290.034180,139.323715 1296.046631,139.259949 1302.587891,139.647583 
	C1303.704346,142.393311 1304.291992,144.687637 1304.879761,146.981964 
	C1305.364258,146.983307 1306.029663,147.195038 1306.307617,146.956100 
	C1330.367065,126.281288 1360.291504,129.767120 1378.485962,155.464981 
	C1389.433716,138.261261 1405.584717,131.904892 1425.110718,134.387375 
	C1448.463257,137.356369 1462.927368,153.530380 1463.695312,177.932922 
	C1464.401855,200.383408 1463.845703,222.873642 1463.845703,245.710724 
	C1456.345581,245.710724 1448.953735,245.710724 1440.913818,245.710724 
	C1440.913818,244.252106 1440.914062,242.660553 1440.913818,241.069000 
	C1440.911987,222.910950 1440.985107,204.752335 1440.850586,186.595276 
	C1440.820068,182.460114 1440.517090,178.224808 1439.570557,174.217194 
	C1436.314941,160.432373 1425.245728,153.072891 1409.887329,154.090683 
	C1396.415894,154.983414 1386.578613,164.145615 1385.083008,177.734009 
	C1384.411011,183.837875 1384.430664,190.033661 1384.398682,196.189087 
	C1384.313110,212.650238 1384.369507,229.112106 1384.369507,245.823074 
	C1376.604858,245.823074 1369.213623,245.823074 1361.349854,245.823074 
	C1361.349854,243.293457 1361.349731,240.999344 1361.349976,238.705215 
	C1361.350952,221.879868 1361.387451,205.054398 1361.326172,188.229263 
	C1361.312256,184.405685 1361.326172,180.521698 1360.695679,176.771683 
	C1358.597534,164.292511 1351.053223,156.674911 1339.030640,154.437500 
	C1326.256470,152.060211 1315.135254,156.919327 1308.153076,168.044144 
	C1307.434692,169.066681 1307.289795,169.723282 1307.144897,170.379883 
	C1307.144897,170.379883 1307.200439,170.741806 1306.737305,171.074524 
	C1305.968872,173.188843 1305.663696,174.970428 1305.358398,176.752014 
z"/>
<path fill="#043B53" opacity="1.000000" stroke="none" 
	d="
M788.176392,135.709595 
	C797.867676,138.334274 805.921936,143.007263 813.362549,150.861984 
	C813.362549,132.404205 813.362549,115.056152 813.362549,97.408905 
	C821.333557,97.408905 828.747864,97.408905 836.576172,97.408905 
	C836.576172,146.106995 836.576172,194.935776 836.576172,244.011368 
	C829.130249,244.011368 821.705994,244.011368 813.713867,244.011368 
	C813.713867,240.272110 813.713867,236.544891 813.713867,232.390610 
	C812.686523,232.837601 812.163269,232.900620 811.919006,233.195007 
	C792.604614,256.476501 752.378174,255.597229 732.934753,228.451828 
	C715.081970,203.527283 718.660217,164.631226 740.966309,146.046600 
	C754.704224,134.600647 770.477051,131.462906 788.176392,135.709595 
M811.725952,204.884888 
	C812.147644,198.119995 813.394592,191.284805 812.825378,184.604340 
	C811.493896,168.978607 799.511658,156.763550 784.216492,154.292480 
	C769.951843,151.987885 755.442383,159.893234 749.111328,173.490463 
	C745.560852,181.116058 745.089783,189.168549 745.898865,197.412888 
	C747.559875,214.338303 759.716797,227.313126 775.870483,229.285446 
	C791.748962,231.224152 805.567444,222.024384 811.725952,204.884888 
z"/>
<path fill="#043B53" opacity="1.000000" stroke="none" 
	d="
M1600.822998,139.678711 
	C1601.062256,174.356064 1601.021362,208.703583 1600.984863,243.518356 
	C1593.359741,243.985611 1585.730225,243.985611 1577.606445,243.985611 
	C1577.606445,240.315994 1577.606445,236.732803 1577.606445,232.435211 
	C1576.438965,233.177078 1575.881958,233.407349 1575.486328,233.800125 
	C1545.972290,263.100525 1498.890991,250.338928 1488.158691,209.866913 
	C1483.384399,191.862900 1484.582153,174.154007 1494.755371,157.937485 
	C1512.656250,129.402390 1552.016479,125.436592 1575.587402,149.639801 
	C1575.906006,149.967041 1576.293457,150.227203 1577.445801,151.172150 
	C1577.445801,146.815887 1577.445801,143.156738 1577.445801,139.348862 
	C1585.619751,139.348862 1593.081299,139.348862 1600.822998,139.678711 
M1571.580078,213.933273 
	C1577.314941,204.702103 1578.291870,194.596619 1576.944702,184.109024 
	C1574.900757,168.198517 1562.133057,155.565903 1546.743042,154.119400 
	C1530.679443,152.609589 1515.658936,162.379929 1511.497559,178.191208 
	C1509.804199,184.625000 1509.634277,191.733963 1510.169678,198.423813 
	C1511.331421,212.937286 1521.940430,225.009262 1535.503540,228.567474 
	C1549.011963,232.111328 1562.486938,226.796036 1571.580078,213.933273 
z"/>
<path fill="#043B53" opacity="1.000000" stroke="none" 
	d="
M1237.017822,244.254120 
	C1233.868408,244.254379 1231.215332,244.254379 1228.154541,244.254379 
	C1228.154541,240.320709 1228.154541,236.571274 1228.154541,232.130600 
	C1227.068481,232.759247 1226.492432,232.942062 1226.127319,233.325638 
	C1211.204224,249.001556 1193.102539,253.562057 1172.793457,247.082535 
	C1152.072876,240.471695 1141.099365,224.775620 1137.126953,204.064880 
	C1134.228271,188.952423 1135.830811,174.166382 1143.481567,160.503387 
	C1160.642578,129.856903 1201.245361,124.565849 1225.922485,149.670654 
	C1226.267822,150.022003 1226.667603,150.319916 1227.671753,151.186020 
	C1227.671753,146.998734 1227.671753,143.345154 1227.671753,139.433075 
	C1235.678589,139.433075 1243.090942,139.433075 1250.827148,139.433075 
	C1250.827148,174.243866 1250.827148,208.956665 1250.827148,244.253860 
	C1246.384888,244.253860 1241.949585,244.253860 1237.017822,244.254120 
M1180.471924,156.791428 
	C1159.052124,166.724640 1152.678345,196.866333 1167.821655,216.615356 
	C1178.285522,230.261749 1197.159180,233.688431 1211.587402,224.348755 
	C1221.676025,217.818222 1226.236938,207.990356 1227.642212,196.347000 
	C1231.109741,167.615265 1207.843750,147.594589 1180.471924,156.791428 
z"/>
<path fill="#043B53" opacity="1.000000" stroke="none" 
	d="
M641.733826,228.628906 
	C656.412231,231.875961 668.968323,230.097229 677.446411,216.402252 
	C678.064636,215.403610 679.823853,214.615219 681.073181,214.585312 
	C688.223022,214.414139 695.379150,214.502136 703.387329,214.502136 
	C702.616516,216.555954 702.108765,218.195328 701.403442,219.744766 
	C692.073792,240.240417 670.702271,251.733002 647.427063,249.671478 
	C614.211731,246.729538 593.981079,220.348007 596.482788,186.559250 
	C598.007324,165.968552 606.385803,149.349060 625.577393,139.766724 
	C653.281616,125.934006 687.355530,136.035706 700.448059,161.800995 
	C706.551453,173.812134 707.513611,186.586197 705.755493,200.313019 
	C677.513916,200.313019 649.308411,200.313019 621.157776,200.313019 
	C620.173218,212.412186 628.373718,223.575455 641.733826,228.628906 
M679.468628,169.227112 
	C672.282776,156.668655 657.427490,150.603867 643.072083,154.367966 
	C630.578186,157.643936 621.047119,169.345245 621.142700,181.551483 
	C641.329346,181.551483 661.518799,181.551483 682.720154,181.551483 
	C681.700806,177.412674 680.774902,173.653366 679.468628,169.227112 
z"/>
<path fill="#043B53" opacity="1.000000" stroke="none" 
	d="
M951.916382,149.836151 
	C951.846619,149.128845 951.776855,148.421524 952.107788,147.114807 
	C952.684143,144.136230 952.859802,141.757065 953.035522,139.377899 
	C959.374451,139.317032 965.713440,139.256165 972.590942,139.668930 
	C973.421204,141.920868 973.964539,143.698761 973.967468,145.477539 
	C974.018494,176.392227 974.021179,207.307083 973.959351,238.221741 
	C973.955505,240.155411 973.333130,242.087845 972.998535,244.020844 
	C966.056396,244.020844 959.114258,244.020844 951.876953,244.020844 
	C951.876953,240.217926 951.876953,236.610809 951.876953,232.435303 
	C950.916565,232.886734 950.272461,232.992249 949.945557,233.371262 
	C926.859253,260.140717 875.748535,255.764648 862.651062,210.857468 
	C855.858215,187.566696 859.110718,165.354919 877.350891,147.656174 
	C895.257690,130.280869 923.530090,129.162506 944.027344,144.723282 
	C944.631470,145.443893 944.971619,145.603348 945.311768,145.762802 
	C945.311768,145.762802 945.180054,145.799515 945.247681,146.031006 
	C945.819458,146.528305 946.323608,146.794098 946.827759,147.059906 
	C947.776489,147.936417 948.725220,148.812927 949.874268,150.279831 
	C950.688538,150.525543 951.302490,150.180847 951.916382,149.836151 
M884.824463,180.593521 
	C884.551514,186.381546 883.600952,192.231705 884.125122,197.946625 
	C886.177185,220.323547 907.761658,234.770554 928.275269,227.860596 
	C941.826050,223.296051 950.494385,210.653793 951.596924,193.847015 
	C952.890442,174.130951 941.170593,157.927826 923.096497,154.443985 
	C906.224548,151.191864 890.575439,161.588501 884.824463,180.593521 
z"/>
<path fill="#083F56" opacity="1.000000" stroke="none" 
	d="
M274.449860,329.187134 
	C274.201111,329.450134 273.952362,329.713135 273.192322,330.065521 
	C272.376282,330.293182 272.156189,330.515350 272.020721,330.821350 
	C261.104004,335.880310 250.528214,341.931763 239.209259,345.819672 
	C198.748627,359.717377 158.386292,358.461212 118.692543,342.495331 
	C109.660019,338.862244 101.192482,333.824493 92.501869,328.908081 
	C95.475372,329.053009 98.937706,328.992737 101.189728,330.613861 
	C103.153709,332.027557 104.110977,334.121216 106.522606,331.731384 
	C108.081940,330.186157 109.528145,328.526794 111.389259,326.957062 
	C145.485931,343.334778 180.879303,346.431122 217.395020,340.045135 
	C233.102280,337.298218 247.579407,331.030304 261.738281,324.112640 
	C261.729919,325.119507 261.605377,325.751404 261.536438,326.389252 
	C261.385956,327.781616 261.263702,329.177032 261.129883,330.571198 
	C262.525604,330.508575 263.930267,330.524719 265.315216,330.367249 
	C268.365387,330.020355 271.405579,329.585876 274.449860,329.187134 
M113.352211,331.114563 
	C112.887383,331.250275 112.272835,331.244324 111.985428,331.547943 
	C111.076370,332.508392 110.289688,333.584625 109.455673,334.616089 
	C110.891388,334.913574 112.613579,335.850159 113.698059,335.364075 
	C115.483162,334.563873 117.151665,332.864929 113.352211,331.114563 
z"/>
<path fill="#0A4860" opacity="1.000000" stroke="none" 
	d="
M274.778564,329.126953 
	C271.405579,329.585876 268.365387,330.020355 265.315216,330.367249 
	C263.930267,330.524719 262.525604,330.508575 261.129883,330.571198 
	C261.263702,329.177032 261.385956,327.781616 261.536438,326.389252 
	C261.605377,325.751404 261.729919,325.119507 261.740112,324.127808 
	C261.650970,323.770660 261.677307,323.764496 261.955811,323.742462 
	C262.492523,323.467224 262.750732,323.214020 263.201904,322.683899 
	C274.606750,313.641174 285.818665,304.875305 297.021790,296.485107 
	C297.755219,297.702332 298.353577,299.036346 299.263977,299.302338 
	C303.835327,300.638062 307.995911,298.820526 312.140564,297.175385 
	C301.683350,309.997314 288.987061,320.219177 274.778564,329.126953 
z"/>
<path fill="#08455D" opacity="1.000000" stroke="none" 
	d="
M111.025047,326.918579 
	C109.528145,328.526794 108.081940,330.186157 106.522606,331.731384 
	C104.110977,334.121216 103.153709,332.027557 101.189728,330.613861 
	C98.937706,328.992737 95.475372,329.053009 92.290115,328.640259 
	C91.685020,328.969269 91.383011,328.872040 91.032959,328.075928 
	C90.293427,327.344696 89.656311,327.143463 89.019196,326.942200 
	C75.893883,318.609222 64.096489,308.743958 54.238121,296.156433 
	C57.713837,297.784668 61.522209,299.559601 64.392387,302.312653 
	C67.273857,305.076508 68.282936,303.569946 69.306297,301.183929 
	C69.865746,299.879578 69.862473,298.333801 70.422539,297.022552 
	C81.986595,308.718506 95.092751,317.824463 109.041489,326.064270 
	C109.389214,326.244446 109.677399,326.248657 110.196541,326.252869 
	C110.741165,326.371979 110.940346,326.593903 111.025047,326.918579 
z"/>
<path fill="#095C77" opacity="1.000000" stroke="none" 
	d="
M14.756712,214.488098 
	C16.894524,216.710770 19.014736,219.354080 21.790131,222.814224 
	C23.398754,220.644714 24.689775,218.903534 26.343752,217.152512 
	C28.322260,222.958450 29.515984,228.934357 31.648708,234.553879 
	C35.160812,243.807922 39.280579,252.831375 42.805939,262.106750 
	C39.165894,263.305725 35.864094,264.349945 32.562294,265.394165 
	C32.562294,265.394165 32.607376,265.281464 32.650219,265.038666 
	C32.433971,264.520844 32.174881,264.245819 31.915785,263.970825 
	C23.167603,248.675018 17.728771,232.220596 14.756712,214.488098 
z"/>
<path fill="#08506A" opacity="1.000000" stroke="none" 
	d="
M32.666653,265.723846 
	C35.864094,264.349945 39.165894,263.305725 43.110874,262.250244 
	C50.206726,271.312012 56.659401,280.385101 63.189861,289.780518 
	C63.606316,290.362885 63.944988,290.622894 64.197540,290.887512 
	C64.111427,290.892059 64.150475,290.724060 64.221619,291.003296 
	C64.604362,291.486206 64.915955,291.689880 65.158463,291.903412 
	C65.089371,291.913269 65.108551,291.774994 65.193176,292.044067 
	C65.584320,292.513214 65.890831,292.713257 66.134193,292.920624 
	C66.071053,292.927917 66.088074,292.801941 66.178345,293.064453 
	C66.568489,293.528503 66.868362,293.730011 67.112556,293.937622 
	C67.056877,293.943756 67.069656,293.832458 67.165848,294.088684 
	C67.558800,294.543121 67.855553,294.741302 68.100212,294.944031 
	C68.048119,294.948608 68.060890,294.844788 68.159882,295.096954 
	C68.550591,295.549377 68.842323,295.749664 69.087570,295.954437 
	C69.041092,295.958923 69.050201,295.865997 69.155067,296.114594 
	C69.554787,296.556763 69.849632,296.750366 70.111130,296.949371 
	C70.077782,296.954803 70.112968,296.896912 70.112968,296.896912 
	C69.862473,298.333801 69.865746,299.879578 69.306297,301.183929 
	C68.282936,303.569946 67.273857,305.076508 64.392387,302.312653 
	C61.522209,299.559601 57.713837,297.784668 54.130970,295.838257 
	C46.887081,286.081635 39.829044,276.067566 32.666653,265.723846 
z"/>
<path fill="#0A5B76" opacity="1.000000" stroke="none" 
	d="
M353.445221,207.047592 
	C350.968079,227.782791 344.413055,247.203201 333.921021,265.773560 
	C330.307129,265.555664 327.399719,262.879272 324.294189,265.755737 
	C324.212524,265.831390 322.936584,264.617676 322.279449,263.666382 
	C327.773499,249.631241 333.205750,235.934906 338.725403,222.702713 
	C339.365051,231.630936 340.212158,232.549408 346.953217,231.278214 
	C348.890594,223.320923 350.882568,215.139313 353.013916,207.001175 
	C353.153259,207.044632 353.445221,207.047592 353.445221,207.047592 
z"/>
<path fill="#074F69" opacity="1.000000" stroke="none" 
	d="
M322.217621,264.005219 
	C322.936584,264.617676 324.212524,265.831390 324.294189,265.755737 
	C327.399719,262.879272 330.307129,265.555664 333.648010,265.984985 
	C330.646393,271.574280 327.261322,277.159790 323.299561,283.022522 
	C322.477203,283.852020 322.231567,284.404327 321.985901,284.956604 
	C321.870850,285.262756 321.755829,285.568939 321.144714,286.082611 
	C320.493805,286.625336 320.338989,286.960510 320.184174,287.295715 
	C320.184174,287.295715 320.165527,287.165833 319.840332,287.157288 
	C318.726105,288.497559 317.937073,289.846344 317.148010,291.195129 
	C317.148010,291.195129 317.113342,291.092316 316.894531,291.201019 
	C316.534882,291.655518 316.394043,292.001343 316.253174,292.347137 
	C316.253174,292.347137 316.215912,292.178955 315.989014,292.254395 
	C315.497101,292.863037 315.232147,293.396210 314.967163,293.929382 
	C314.967163,293.929382 314.994690,293.991333 314.756256,294.109924 
	C314.266846,294.444305 314.096283,294.711426 314.006073,295.029846 
	C314.023804,295.389252 313.888031,295.675934 313.112946,296.075867 
	C312.450256,296.573853 312.273346,296.885834 312.096436,297.197815 
	C312.096466,297.197815 312.089325,297.130402 312.114929,297.152893 
	C307.995911,298.820526 303.835327,300.638062 299.263977,299.302338 
	C298.353577,299.036346 297.755219,297.702332 297.125153,296.202576 
	C297.836975,295.033020 298.436646,294.521698 299.249115,293.889923 
	C299.723206,293.555695 299.899658,293.286346 300.044250,292.716705 
	C300.374664,292.308502 300.652069,292.145050 301.166107,291.867493 
	C301.590881,291.464752 301.779022,291.176147 302.077698,290.574402 
	C308.864655,281.509216 315.541138,272.757233 322.217621,264.005219 
z"/>
<path fill="#0B6480" opacity="1.000000" stroke="none" 
	d="
M352.874573,206.957718 
	C350.882568,215.139313 348.890594,223.320923 346.953217,231.278214 
	C340.212158,232.549408 339.365051,231.630936 338.733246,222.654144 
	C338.653625,222.141418 338.730682,222.078156 339.107025,221.900208 
	C339.953766,218.942520 340.424194,216.162781 340.780579,212.999710 
	C341.152740,209.740402 341.638947,206.864426 342.327087,203.845978 
	C342.440460,203.145889 342.351898,202.588257 342.220490,201.686737 
	C342.291260,200.898895 342.404846,200.454956 342.856018,199.943176 
	C346.785675,200.581940 350.377777,201.288513 353.969879,201.995087 
	C353.990936,202.450394 354.011963,202.905685 353.705200,203.910156 
	C353.209747,205.292130 353.042145,206.124924 352.874573,206.957718 
z"/>
<path fill="#186D88" opacity="1.000000" stroke="none" 
	d="
M354.127258,201.612274 
	C350.377777,201.288513 346.785675,200.581940 342.794159,199.539001 
	C342.676727,195.134811 342.958710,191.066986 343.240662,186.999146 
	C343.677704,184.476944 344.114746,181.954727 344.636627,178.942993 
	C346.444031,179.654404 348.024353,180.276443 350.358368,181.195129 
	C351.605011,178.502243 352.834534,175.846420 354.407349,173.097778 
	C354.595306,182.413132 354.440002,191.821304 354.127258,201.612274 
z"/>
<path fill="#133A4D" opacity="1.000000" stroke="none" 
	d="
M1283.598022,139.301147 
	C1283.679443,143.171265 1283.050903,146.954224 1283.040405,150.738907 
	C1282.958496,180.401733 1283.069092,210.065292 1282.909546,239.727493 
	C1282.887451,243.825745 1283.954834,245.473602 1288.194336,245.071243 
	C1291.662598,244.742081 1295.203491,244.791153 1298.682495,245.058289 
	C1302.955200,245.386353 1304.102295,243.518539 1304.067749,239.489395 
	C1303.911865,221.326263 1303.987671,203.161057 1304.018921,184.996643 
	C1304.022095,183.188217 1304.290527,181.380264 1304.743652,179.288300 
	C1305.051514,201.125839 1305.051514,223.247177 1305.051514,245.726471 
	C1297.346191,245.726471 1289.823853,245.726471 1281.841797,245.726471 
	C1281.841797,244.039688 1281.841797,242.423996 1281.841919,240.808289 
	C1281.842896,208.685150 1281.823120,176.561951 1281.901611,144.438995 
	C1281.905884,142.696548 1282.731201,140.956131 1283.598022,139.301147 
z"/>
<path fill="#1B3E4F" opacity="1.000000" stroke="none" 
	d="
M1112.833740,255.527054 
	C1112.478882,254.211319 1112.041748,252.441559 1112.039673,250.671310 
	C1111.999390,215.940628 1112.025024,181.209854 1111.972046,146.479218 
	C1111.968872,144.369003 1111.423340,142.259613 1111.048340,139.761993 
	C1111.633423,139.614929 1112.717896,139.698502 1112.880249,140.129303 
	C1113.214111,141.015900 1113.093994,142.088181 1113.092896,143.083969 
	C1113.051392,180.413574 1113.002197,217.743195 1112.833740,255.527054 
z"/>
<path fill="#183D4E" opacity="1.000000" stroke="none" 
	d="
M973.443359,244.102142 
	C973.333130,242.087845 973.955505,240.155411 973.959351,238.221741 
	C974.021179,207.307083 974.018494,176.392227 973.967468,145.477539 
	C973.964539,143.698761 973.421204,141.920868 973.050293,139.753754 
	C973.661438,140.615051 974.930725,141.856033 974.950562,143.116714 
	C975.113037,153.417404 975.042786,163.721771 975.042358,174.025009 
	C975.041443,195.794754 975.064331,217.564606 974.988953,239.334091 
	C974.983398,240.951782 974.271667,242.567047 973.443359,244.102142 
z"/>
<path fill="#183D4E" opacity="1.000000" stroke="none" 
	d="
M952.680664,139.359650 
	C952.859802,141.757065 952.684143,144.136230 952.213745,146.771729 
	C952.054688,144.465851 952.190308,141.903641 952.680664,139.359650 
z"/>
<path fill="#186D88" opacity="1.000000" stroke="none" 
	d="
M354.640137,170.596252 
	C354.153748,168.534119 353.735596,166.082413 353.561218,163.341827 
	C354.106079,165.437531 354.407227,167.822098 354.640137,170.596252 
z"/>
<path fill="#133A4D" opacity="1.000000" stroke="none" 
	d="
M1304.945068,146.553070 
	C1304.291992,144.687637 1303.704346,142.393311 1303.045654,139.742798 
	C1307.202271,140.559998 1304.097656,143.949051 1304.945068,146.553070 
z"/>
<path fill="#0A4860" opacity="1.000000" stroke="none" 
	d="
M317.438019,291.049835 
	C317.937073,289.846344 318.726105,288.497559 319.900330,287.183899 
	C319.433014,288.447510 318.580505,289.676025 317.438019,291.049835 
z"/>
<path fill="#133A4D" opacity="1.000000" stroke="none" 
	d="
M1305.606689,176.461121 
	C1305.663696,174.970428 1305.968872,173.188843 1306.614746,171.210602 
	C1306.588501,172.732697 1306.221680,174.451462 1305.606689,176.461121 
z"/>
<path fill="#1B3E4F" opacity="1.000000" stroke="none" 
	d="
M1091.683960,139.263229 
	C1091.545166,139.888260 1091.064331,140.415756 1090.290527,140.970764 
	C1090.445801,140.387436 1090.893799,139.776566 1091.683960,139.263229 
z"/>
<path fill="#083F56" opacity="1.000000" stroke="none" 
	d="
M89.190628,327.184448 
	C89.656311,327.143463 90.293427,327.344696 90.940468,327.846741 
	C90.420944,327.907288 89.891495,327.666992 89.190628,327.184448 
z"/>
<path fill="#183D4E" opacity="1.000000" stroke="none" 
	d="
M951.656921,150.116455 
	C951.302490,150.180847 950.688538,150.525543 950.000671,150.581787 
	C950.416931,150.327820 950.907227,150.362289 951.656921,150.116455 
z"/>
<path fill="#186D88" opacity="1.000000" stroke="none" 
	d="
M353.013916,207.001175 
	C353.042145,206.124924 353.209747,205.292130 353.611694,204.241638 
	C353.830902,204.799377 353.815765,205.574844 353.622925,206.698944 
	C353.445221,207.047592 353.153259,207.044632 353.013916,207.001175 
z"/>
<path fill="#1B3E4F" opacity="1.000000" stroke="none" 
	d="
M1110.538818,267.412415 
	C1110.388916,266.617279 1110.504883,265.518768 1110.971436,264.181213 
	C1111.149658,264.997742 1110.977295,266.053406 1110.538818,267.412415 
z"/>
<path fill="#1B3E4F" opacity="1.000000" stroke="none" 
	d="
M1111.550293,263.421875 
	C1111.344849,262.667938 1111.391479,261.609283 1111.729248,260.275787 
	C1111.947632,261.039703 1111.874878,262.078430 1111.550293,263.421875 
z"/>
<path fill="#0A4860" opacity="1.000000" stroke="none" 
	d="
M315.232910,293.814117 
	C315.232147,293.396210 315.497101,292.863037 316.071472,292.279144 
	C316.086792,292.718597 315.792725,293.208710 315.232910,293.814117 
z"/>
<path fill="#126A85" opacity="1.000000" stroke="none" 
	d="
M12.109289,174.356873 
	C12.309826,174.585663 12.428714,175.129807 12.349180,175.817932 
	C12.109719,175.532028 12.068681,175.102112 12.109289,174.356873 
z"/>
<path fill="#133A4D" opacity="1.000000" stroke="none" 
	d="
M1307.402344,170.170761 
	C1307.289795,169.723282 1307.434692,169.066681 1307.878418,168.232971 
	C1308.004883,168.691132 1307.832397,169.326385 1307.402344,170.170761 
z"/>
<path fill="#0A4860" opacity="1.000000" stroke="none" 
	d="
M322.249146,284.814850 
	C322.231567,284.404327 322.477203,283.852020 323.018250,283.194702 
	C323.046539,283.617523 322.779480,284.145294 322.249146,284.814850 
z"/>
<path fill="#183D4E" opacity="1.000000" stroke="none" 
	d="
M946.720764,146.802490 
	C946.323608,146.794098 945.819458,146.528305 945.271240,145.966827 
	C945.689331,145.962463 946.151550,146.253769 946.720764,146.802490 
z"/>
<path fill="#08506A" opacity="1.000000" stroke="none" 
	d="
M31.933977,264.258240 
	C32.174881,264.245819 32.433971,264.520844 32.681046,265.090942 
	C32.430077,265.105896 32.191120,264.825775 31.933977,264.258240 
z"/>
<path fill="#0A4860" opacity="1.000000" stroke="none" 
	d="
M272.270966,330.812012 
	C272.156189,330.515350 272.376282,330.293182 272.914246,330.102966 
	C272.938721,330.301575 272.729950,330.552124 272.270966,330.812012 
z"/>
<path fill="#183D4E" opacity="1.000000" stroke="none" 
	d="
M945.203491,145.499390 
	C944.971619,145.603348 944.631470,145.443893 944.195190,145.007843 
	C944.431152,144.899475 944.763184,145.067734 945.203491,145.499390 
z"/>
<path fill="#0A4860" opacity="1.000000" stroke="none" 
	d="
M312.355377,297.095306 
	C312.273346,296.885834 312.450256,296.573853 312.877563,296.148315 
	C312.956726,296.354126 312.785522,296.673462 312.355377,297.095306 
z"/>
<path fill="#0A4860" opacity="1.000000" stroke="none" 
	d="
M320.446350,287.184448 
	C320.338989,286.960510 320.493805,286.625336 320.907959,286.172241 
	C321.014374,286.393982 320.861450,286.733612 320.446350,287.184448 
z"/>
<path fill="#0A4860" opacity="1.000000" stroke="none" 
	d="
M314.243530,294.940369 
	C314.096283,294.711426 314.266846,294.444305 314.723022,294.103271 
	C314.779114,294.268951 314.630066,294.559906 314.243530,294.940369 
z"/>
<path fill="#0A4860" opacity="1.000000" stroke="none" 
	d="
M316.508636,292.229248 
	C316.394043,292.001343 316.534882,291.655518 316.948547,291.206299 
	C317.068909,291.439026 316.916504,291.775208 316.508636,292.229248 
z"/>
<path fill="#F9FCFC" opacity="1.000000" stroke="none" 
	d="
M343.166199,186.546600 
	C342.958710,191.066986 342.676727,195.134811 342.456604,199.606827 
	C342.404846,200.454956 342.291260,200.898895 342.111328,202.002930 
	C342.071747,203.104828 342.098450,203.546646 342.125183,203.988449 
	C341.638947,206.864426 341.152740,209.740402 340.493713,213.299744 
	C339.790833,216.681473 339.260773,219.379822 338.730713,222.078156 
	C338.730682,222.078156 338.653625,222.141418 338.645813,222.190002 
	C333.205750,235.934906 327.773499,249.631241 322.279449,263.666382 
	C315.541138,272.757233 308.864655,281.509216 301.827271,290.671387 
	C301.287384,291.381561 301.108429,291.681580 300.929443,291.981598 
	C300.652069,292.145050 300.374664,292.308502 299.805267,292.806824 
	C299.354309,293.431244 299.195312,293.720795 299.036285,294.010345 
	C298.436646,294.521698 297.836975,295.033020 297.133972,295.826904 
	C285.818665,304.875305 274.606750,313.641174 262.921570,322.708496 
	C262.191284,323.261444 261.934296,323.512970 261.677307,323.764496 
	C261.677307,323.764496 261.650970,323.770660 261.649170,323.755493 
	C247.579407,331.030304 233.102280,337.298218 217.395020,340.045135 
	C180.879303,346.431122 145.485931,343.334778 111.389259,326.957062 
	C110.940346,326.593903 110.741165,326.371979 109.974030,326.098541 
	C109.341034,325.925598 109.161499,325.906921 108.981956,325.888275 
	C95.092751,317.824463 81.986595,308.718506 70.422539,297.022552 
	C70.112968,296.896912 70.077782,296.954803 70.017944,296.691162 
	C69.655479,296.240326 69.352844,296.053162 69.050201,295.865997 
	C69.050201,295.865997 69.041092,295.958923 69.001266,295.693176 
	C68.661255,295.233185 68.361076,295.038971 68.060898,294.844788 
	C68.060890,294.844788 68.048119,294.948608 68.017120,294.678650 
	C67.680634,294.216583 67.375145,294.024536 67.069656,293.832458 
	C67.069656,293.832458 67.056877,293.943756 67.024124,293.673126 
	C66.690277,293.202301 66.389175,293.002106 66.088074,292.801941 
	C66.088074,292.801941 66.071053,292.927917 66.047623,292.652252 
	C65.718979,292.176056 65.413765,291.975525 65.108551,291.774994 
	C65.108551,291.774994 65.089371,291.913269 65.070236,291.634338 
	C64.750900,291.144958 64.450684,290.934509 64.150467,290.724060 
	C64.150475,290.724060 64.111427,290.892059 64.096230,290.581482 
	C63.758041,289.999969 63.435055,289.729065 63.112072,289.458160 
	C56.659401,280.385101 50.206726,271.312012 43.449120,262.095490 
	C39.280579,252.831375 35.160812,243.807922 31.648708,234.553879 
	C29.515984,228.934357 28.322260,222.958450 26.477230,216.789124 
	C26.247755,216.435593 26.317560,216.203705 26.243774,215.747925 
	C26.030407,214.546570 25.890823,213.801010 25.751240,213.055450 
	C25.158751,207.651596 24.566265,202.247742 23.966038,196.042755 
	C23.872099,194.508835 23.785902,193.776047 23.699707,193.043259 
	C23.739552,189.337341 23.779398,185.631409 23.748444,181.469299 
	C24.904390,160.833023 27.623528,140.913101 35.892162,122.249809 
	C60.071659,67.673790 101.405090,34.731140 160.643768,25.949684 
	C248.512085,12.924215 328.981232,73.141922 341.777557,160.706985 
	C341.993866,162.187119 342.095062,163.684082 342.400635,165.973053 
	C342.775208,169.847595 342.999115,172.922241 343.223053,175.996902 
	C343.179260,179.362625 343.135498,182.728333 343.166199,186.546600 
M256.329132,195.285828 
	C244.822845,215.460846 227.498459,230.089279 208.367188,244.500977 
	C219.947998,245.821304 230.317856,246.758804 240.597092,248.300537 
	C244.501755,248.886169 246.131119,247.523636 247.078262,244.208847 
	C249.356552,236.235397 252.213654,228.376083 253.788483,220.267044 
	C255.416336,211.884888 255.806046,203.262253 257.025360,194.843430 
	C257.109955,194.834305 257.194519,194.825195 257.279114,194.816055 
	C257.127563,194.817810 256.976013,194.819550 256.329132,195.285828 
M190.061813,242.640915 
	C203.310471,232.081680 216.999298,222.019592 229.666672,210.803864 
	C239.569641,202.035767 246.825470,190.928787 251.279297,178.252686 
	C258.591949,157.440170 251.307816,135.454163 233.519745,123.794289 
	C218.542068,113.976608 192.731842,119.152809 186.135300,134.146271 
	C185.578659,135.411484 184.537338,136.463455 184.217590,136.914413 
	C179.679901,132.483704 175.955566,127.192741 170.879044,124.181122 
	C150.551254,112.121773 127.031715,120.475807 116.966179,142.664612 
	C108.943489,160.350098 112.538925,176.819504 122.427353,192.437851 
	C136.119217,214.063614 156.001007,229.091354 176.953979,242.954590 
	C181.283157,245.818924 185.244919,246.776016 190.061813,242.640915 
M233.889771,95.715294 
	C219.729202,74.474182 204.327576,54.378174 183.200302,39.741543 
	C159.894608,57.683487 141.367477,78.748367 128.326324,104.443115 
	C137.915115,111.131950 225.556244,111.308655 238.223907,104.700027 
	C236.905396,101.942291 235.571548,99.152458 233.889771,95.715294 
M225.898041,260.540924 
	C193.447723,257.018951 161.076645,257.065613 128.568558,262.128632 
	C128.864944,263.362793 128.932007,264.038483 129.188477,264.632385 
	C129.846161,266.155365 130.464401,267.716217 131.314728,269.131989 
	C143.652634,289.674927 158.579056,308.065674 177.106873,323.356720 
	C183.621109,328.732941 183.847198,328.542572 190.272781,323.057861 
	C207.625336,308.246216 222.111694,290.994781 233.903992,271.483948 
	C235.596619,268.683411 236.920441,265.660004 238.720810,262.142120 
	C234.264496,261.594971 230.528107,261.136230 225.898041,260.540924 
M98.951683,146.416473 
	C101.735672,136.217255 104.519653,126.018044 107.147575,116.390594 
	C93.144592,111.748291 79.593178,107.363426 66.137550,102.702065 
	C63.511909,101.792465 62.334240,102.343452 60.935299,104.524628 
	C49.575974,122.235649 41.995590,141.454971 38.287251,162.118179 
	C37.437874,166.850983 38.162079,171.866196 38.162079,176.605957 
	C57.293907,176.605957 75.864578,176.605957 94.510162,176.605957 
	C95.981407,166.619278 97.407303,156.940414 98.951683,146.416473 
M318.196869,128.346207 
	C314.262848,120.665863 310.295410,113.002335 306.413635,105.295670 
	C305.129730,102.746666 303.361023,102.239082 300.716370,103.087982 
	C287.150299,107.442482 273.552551,111.698242 260.472687,115.828461 
	C264.716492,135.849777 269.003052,156.072769 273.356659,176.612122 
	C291.196716,176.612122 309.910645,176.612122 328.940033,176.612122 
	C329.867554,159.545685 324.361450,144.256042 318.196869,128.346207 
M45.016621,230.457397 
	C45.381424,231.561829 45.625053,232.725296 46.129894,233.761505 
	C50.839035,243.427048 55.483616,253.127991 60.466278,262.651581 
	C61.122284,263.905426 63.877724,265.209503 65.145126,264.818542 
	C79.043900,260.531250 92.840218,255.911819 105.954834,251.615021 
	C101.865898,231.773621 97.727371,211.691544 93.509399,191.223999 
	C75.641296,191.223999 56.786900,191.223999 37.799179,191.223999 
	C38.000992,204.695892 40.642902,217.330002 45.016621,230.457397 
M307.679047,260.150940 
	C320.634338,238.993484 328.225159,216.224976 329.053986,191.140411 
	C309.640717,191.140411 290.903015,191.140411 273.422089,191.140411 
	C269.085266,211.696365 264.860382,231.721710 260.590027,251.962418 
	C274.954285,256.451202 289.760162,261.078033 304.681549,265.740936 
	C305.596741,263.987549 306.437042,262.377686 307.679047,260.150940 
M284.248688,273.136322 
	C275.763611,270.826080 267.266022,268.560455 258.799072,266.185638 
	C254.930664,265.100677 252.394791,266.045471 250.428726,269.833435 
	C240.153549,289.630524 226.741394,307.123016 210.895340,322.785614 
	C209.707565,323.959625 208.753937,325.370483 207.282486,327.171967 
	C235.619644,325.500122 285.611084,296.646423 294.020508,277.356018 
	C291.005707,276.049591 287.988586,274.742126 284.248688,273.136322 
M88.103516,271.567749 
	C82.907555,273.465729 77.711601,275.363678 72.395119,277.305695 
	C84.056129,298.376556 138.587341,329.267334 158.623932,326.649933 
	C158.321442,326.215973 158.098343,325.785645 157.776520,325.449951 
	C141.257385,308.220825 126.035812,290.008057 115.273323,268.504517 
	C113.749535,265.459961 111.578911,265.538116 109.118164,266.126892 
	C102.339546,267.748810 95.599571,269.532257 88.103516,271.567749 
M114.797493,100.587105 
	C125.079857,77.413925 141.670822,58.830441 158.833603,40.508709 
	C123.582436,46.053013 95.430092,63.394516 72.316208,90.110893 
	C85.087883,94.686287 97.647636,98.336555 110.253151,101.821289 
	C111.478706,102.160095 112.986931,101.476418 114.797493,100.587105 
M225.381165,60.125526 
	C233.516357,72.061409 242.033600,83.762283 249.593292,96.052155 
	C252.500519,100.778427 254.908920,102.811874 260.387421,101.076469 
	C271.705933,97.491158 283.143372,94.281227 294.912445,90.804466 
	C280.295288,67.829094 232.007935,40.418224 207.365707,40.420937 
	C213.288559,46.878441 219.110764,53.226212 225.381165,60.125526 
M117.005768,205.458069 
	C114.706154,202.230087 112.406548,199.002106 110.106934,195.774109 
	C109.707336,195.998230 109.307747,196.222336 108.908150,196.446442 
	C110.449997,214.586044 114.479683,232.124954 121.906860,249.158905 
	C133.854431,247.643692 145.560715,246.159073 158.381409,244.533127 
	C142.606277,232.812637 128.636642,220.867126 117.005768,205.458069 
z"/>
<path fill="#186D88" opacity="1.000000" stroke="none" 
	d="
M343.555237,175.914856 
	C342.999115,172.922241 342.775208,169.847595 342.595947,166.300659 
	C343.056274,169.163193 343.471863,172.498001 343.555237,175.914856 
z"/>
<path fill="#095C77" opacity="1.000000" stroke="none" 
	d="
M25.543871,213.278076 
	C25.890823,213.801010 26.030407,214.546570 26.148821,215.672775 
	C25.863935,215.202515 25.600220,214.351624 25.543871,213.278076 
z"/>
<path fill="#1F7691" opacity="1.000000" stroke="none" 
	d="
M23.501266,193.247177 
	C23.785902,193.776047 23.872099,194.508835 23.887302,195.606247 
	C23.645145,195.130951 23.473986,194.291016 23.501266,193.247177 
z"/>
<path fill="#FCFDFE" opacity="1.000000" stroke="none" 
	d="
M1042.792114,156.563354 
	C1069.242310,147.770264 1092.211670,166.834991 1089.663330,194.938385 
	C1088.572388,206.971069 1084.205566,217.272766 1073.828857,224.111450 
	C1052.423096,238.218521 1024.267944,223.699432 1022.144897,197.336594 
	C1021.670776,191.449677 1021.918823,185.243484 1023.276428,179.526733 
	C1025.782715,168.973465 1032.215820,161.108124 1042.792114,156.563354 
z"/>
<path fill="#FDFEFE" opacity="1.000000" stroke="none" 
	d="
M811.564575,205.257065 
	C805.567444,222.024384 791.748962,231.224152 775.870483,229.285446 
	C759.716797,227.313126 747.559875,214.338303 745.898865,197.412888 
	C745.089783,189.168549 745.560852,181.116058 749.111328,173.490463 
	C755.442383,159.893234 769.951843,151.987885 784.216492,154.292480 
	C799.511658,156.763550 811.493896,168.978607 812.825378,184.604340 
	C813.394592,191.284805 812.147644,198.119995 811.564575,205.257065 
z"/>
<path fill="#FDFEFE" opacity="1.000000" stroke="none" 
	d="
M1571.356445,214.223236 
	C1562.486938,226.796036 1549.011963,232.111328 1535.503540,228.567474 
	C1521.940430,225.009262 1511.331421,212.937286 1510.169678,198.423813 
	C1509.634277,191.733963 1509.804199,184.625000 1511.497559,178.191208 
	C1515.658936,162.379929 1530.679443,152.609589 1546.743042,154.119400 
	C1562.133057,155.565903 1574.900757,168.198517 1576.944702,184.109024 
	C1578.291870,194.596619 1577.314941,204.702103 1571.356445,214.223236 
z"/>
<path fill="#FCFDFE" opacity="1.000000" stroke="none" 
	d="
M1180.811768,156.601685 
	C1207.843750,147.594589 1231.109741,167.615265 1227.642212,196.347000 
	C1226.236938,207.990356 1221.676025,217.818222 1211.587402,224.348755 
	C1197.159180,233.688431 1178.285522,230.261749 1167.821655,216.615356 
	C1152.678345,196.866333 1159.052124,166.724640 1180.811768,156.601685 
z"/>
<path fill="#F8FBFB" opacity="1.000000" stroke="none" 
	d="
M679.658813,169.560593 
	C680.774902,173.653366 681.700806,177.412674 682.720154,181.551483 
	C661.518799,181.551483 641.329346,181.551483 621.142700,181.551483 
	C621.047119,169.345245 630.578186,157.643936 643.072083,154.367966 
	C657.427490,150.603867 672.282776,156.668655 679.658813,169.560593 
z"/>
<path fill="#FCFDFE" opacity="1.000000" stroke="none" 
	d="
M884.902649,180.179993 
	C890.575439,161.588501 906.224548,151.191864 923.096497,154.443985 
	C941.170593,157.927826 952.890442,174.130951 951.596924,193.847015 
	C950.494385,210.653793 941.826050,223.296051 928.275269,227.860596 
	C907.761658,234.770554 886.177185,220.323547 884.125122,197.946625 
	C883.600952,192.231705 884.551514,186.381546 884.902649,180.179993 
z"/>
<path fill="#08455D" opacity="1.000000" stroke="none" 
	d="
M113.719658,331.150330 
	C117.151665,332.864929 115.483162,334.563873 113.698059,335.364075 
	C112.613579,335.850159 110.891388,334.913574 109.455673,334.616089 
	C110.289688,333.584625 111.076370,332.508392 111.985428,331.547943 
	C112.272835,331.244324 112.887383,331.250275 113.719658,331.150330 
z"/>
<path fill="#083F56" opacity="1.000000" stroke="none" 
	d="
M261.955811,323.742462 
	C261.934296,323.512970 262.191284,323.261444 262.728607,322.985352 
	C262.750732,323.214020 262.492523,323.467224 261.955811,323.742462 
z"/>
<path fill="#083F56" opacity="1.000000" stroke="none" 
	d="
M109.041489,326.064270 
	C109.161499,325.906921 109.341034,325.925598 109.743080,326.098572 
	C109.677399,326.248657 109.389214,326.244446 109.041489,326.064270 
z"/>
<path fill="#08455D" opacity="1.000000" stroke="none" 
	d="
M68.159882,295.096954 
	C68.361076,295.038971 68.661255,295.233185 69.047745,295.688660 
	C68.842323,295.749664 68.550591,295.549377 68.159882,295.096954 
z"/>
<path fill="#08455D" opacity="1.000000" stroke="none" 
	d="
M69.155075,296.114594 
	C69.352844,296.053162 69.655479,296.240326 70.051300,296.685730 
	C69.849632,296.750366 69.554787,296.556763 69.155075,296.114594 
z"/>
<path fill="#08455D" opacity="1.000000" stroke="none" 
	d="
M67.165848,294.088684 
	C67.375145,294.024536 67.680634,294.216583 68.069214,294.674072 
	C67.855553,294.741302 67.558800,294.543121 67.165848,294.088684 
z"/>
<path fill="#08455D" opacity="1.000000" stroke="none" 
	d="
M66.178345,293.064453 
	C66.389175,293.002106 66.690277,293.202301 67.079803,293.666992 
	C66.868362,293.730011 66.568489,293.528503 66.178345,293.064453 
z"/>
<path fill="#08455D" opacity="1.000000" stroke="none" 
	d="
M65.193176,292.044067 
	C65.413765,291.975525 65.718979,292.176056 66.110764,292.644958 
	C65.890831,292.713257 65.584320,292.513214 65.193176,292.044067 
z"/>
<path fill="#08455D" opacity="1.000000" stroke="none" 
	d="
M64.221619,291.003296 
	C64.450684,290.934509 64.750900,291.144958 65.139328,291.624481 
	C64.915955,291.689880 64.604362,291.486206 64.221619,291.003296 
z"/>
<path fill="#08455D" opacity="1.000000" stroke="none" 
	d="
M63.189857,289.780518 
	C63.435055,289.729065 63.758041,289.999969 64.182343,290.576904 
	C63.944988,290.622894 63.606316,290.362885 63.189857,289.780518 
z"/>
<path fill="#0A4860" opacity="1.000000" stroke="none" 
	d="
M299.249115,293.889923 
	C299.195312,293.720795 299.354309,293.431244 299.752319,293.051575 
	C299.899658,293.286346 299.723206,293.555695 299.249115,293.889923 
z"/>
<path fill="#0A4860" opacity="1.000000" stroke="none" 
	d="
M301.166077,291.867493 
	C301.108429,291.681580 301.287384,291.381561 301.716736,290.984558 
	C301.779022,291.176147 301.590881,291.464752 301.166077,291.867493 
z"/>
<path fill="#0A5B76" opacity="1.000000" stroke="none" 
	d="
M339.107056,221.900208 
	C339.260773,219.379822 339.790833,216.681473 340.607788,213.683075 
	C340.424194,216.162781 339.953766,218.942520 339.107056,221.900208 
z"/>
<path fill="#186D88" opacity="1.000000" stroke="none" 
	d="
M342.327087,203.845978 
	C342.098450,203.546646 342.071747,203.104828 342.154175,202.346832 
	C342.351898,202.588257 342.440460,203.145889 342.327087,203.845978 
z"/>
<path fill="#C4252D" opacity="1.000000" stroke="none" 
	d="
M189.740997,242.823853 
	C185.244919,246.776016 181.283157,245.818924 176.953979,242.954590 
	C156.001007,229.091354 136.119217,214.063614 122.427353,192.437851 
	C112.538925,176.819504 108.943489,160.350098 116.966179,142.664612 
	C127.031715,120.475807 150.551254,112.121773 170.879044,124.181122 
	C175.955566,127.192741 179.679901,132.483704 184.217590,136.914413 
	C184.537338,136.463455 185.578659,135.411484 186.135300,134.146271 
	C192.731842,119.152809 218.542068,113.976608 233.519745,123.794289 
	C251.307816,135.454163 258.591949,157.440170 251.279297,178.252686 
	C246.825470,190.928787 239.569641,202.035767 229.666672,210.803864 
	C216.999298,222.019592 203.310471,232.081680 189.740997,242.823853 
z"/>
<path fill="#196B84" opacity="1.000000" stroke="none" 
	d="
M234.063721,96.038956 
	C235.571548,99.152458 236.905396,101.942291 238.223907,104.700027 
	C225.556244,111.308655 137.915115,111.131950 128.326324,104.443115 
	C141.367477,78.748367 159.894608,57.683487 183.200302,39.741543 
	C204.327576,54.378174 219.729202,74.474182 234.063721,96.038956 
z"/>
<path fill="#033B53" opacity="1.000000" stroke="none" 
	d="
M226.344879,260.609192 
	C230.528107,261.136230 234.264496,261.594971 238.720810,262.142120 
	C236.920441,265.660004 235.596619,268.683411 233.903992,271.483948 
	C222.111694,290.994781 207.625336,308.246216 190.272781,323.057861 
	C183.847198,328.542572 183.621109,328.732941 177.106873,323.356720 
	C158.579056,308.065674 143.652634,289.674927 131.314728,269.131989 
	C130.464401,267.716217 129.846161,266.155365 129.188477,264.632385 
	C128.932007,264.038483 128.864944,263.362793 128.568558,262.128632 
	C161.076645,257.065613 193.447723,257.018951 226.344879,260.609192 
z"/>
<path fill="#196B84" opacity="1.000000" stroke="none" 
	d="
M98.892441,146.839020 
	C97.407303,156.940414 95.981407,166.619278 94.510162,176.605957 
	C75.864578,176.605957 57.293907,176.605957 38.162079,176.605957 
	C38.162079,171.866196 37.437874,166.850983 38.287251,162.118179 
	C41.995590,141.454971 49.575974,122.235649 60.935299,104.524628 
	C62.334240,102.343452 63.511909,101.792465 66.137550,102.702065 
	C79.593178,107.363426 93.144592,111.748291 107.147575,116.390594 
	C104.519653,126.018044 101.735672,136.217255 98.892441,146.839020 
z"/>
<path fill="#196B84" opacity="1.000000" stroke="none" 
	d="
M318.373840,128.688782 
	C324.361450,144.256042 329.867554,159.545685 328.940033,176.612122 
	C309.910645,176.612122 291.196716,176.612122 273.356659,176.612122 
	C269.003052,156.072769 264.716492,135.849777 260.472687,115.828461 
	C273.552551,111.698242 287.150299,107.442482 300.716370,103.087982 
	C303.361023,102.239082 305.129730,102.746666 306.413635,105.295670 
	C310.295410,113.002335 314.262848,120.665863 318.373840,128.688782 
z"/>
<path fill="#084E65" opacity="1.000000" stroke="none" 
	d="
M44.916138,230.072479 
	C40.642902,217.330002 38.000992,204.695892 37.799179,191.223999 
	C56.786900,191.223999 75.641296,191.223999 93.509399,191.223999 
	C97.727371,211.691544 101.865898,231.773621 105.954834,251.615021 
	C92.840218,255.911819 79.043900,260.531250 65.145126,264.818542 
	C63.877724,265.209503 61.122284,263.905426 60.466278,262.651581 
	C55.483616,253.127991 50.839035,243.427048 46.129894,233.761505 
	C45.625053,232.725296 45.381424,231.561829 44.916138,230.072479 
z"/>
<path fill="#074E65" opacity="1.000000" stroke="none" 
	d="
M307.478210,260.459381 
	C306.437042,262.377686 305.596741,263.987549 304.681549,265.740936 
	C289.760162,261.078033 274.954285,256.451202 260.590027,251.962418 
	C264.860382,231.721710 269.085266,211.696365 273.422089,191.140411 
	C290.903015,191.140411 309.640717,191.140411 329.053986,191.140411 
	C328.225159,216.224976 320.634338,238.993484 307.478210,260.459381 
z"/>
<path fill="#053C53" opacity="1.000000" stroke="none" 
	d="
M284.610077,273.285522 
	C287.988586,274.742126 291.005707,276.049591 294.020508,277.356018 
	C285.611084,296.646423 235.619644,325.500122 207.282486,327.171967 
	C208.753937,325.370483 209.707565,323.959625 210.895340,322.785614 
	C226.741394,307.123016 240.153549,289.630524 250.428726,269.833435 
	C252.394791,266.045471 254.930664,265.100677 258.799072,266.185638 
	C267.266022,268.560455 275.763611,270.826080 284.610077,273.285522 
z"/>
<path fill="#053C53" opacity="1.000000" stroke="none" 
	d="
M88.473915,271.409790 
	C95.599571,269.532257 102.339546,267.748810 109.118164,266.126892 
	C111.578911,265.538116 113.749535,265.459961 115.273323,268.504517 
	C126.035812,290.008057 141.257385,308.220825 157.776520,325.449951 
	C158.098343,325.785645 158.321442,326.215973 158.623932,326.649933 
	C138.587341,329.267334 84.056129,298.376556 72.395119,277.305695 
	C77.711601,275.363678 82.907555,273.465729 88.473915,271.409790 
z"/>
<path fill="#1C6B84" opacity="1.000000" stroke="none" 
	d="
M114.580719,100.927231 
	C112.986931,101.476418 111.478706,102.160095 110.253151,101.821289 
	C97.647636,98.336555 85.087883,94.686287 72.316208,90.110893 
	C95.430092,63.394516 123.582436,46.053013 158.833603,40.508709 
	C141.670822,58.830441 125.079857,77.413925 114.580719,100.927231 
z"/>
<path fill="#1B6B84" opacity="1.000000" stroke="none" 
	d="
M225.157074,59.849754 
	C219.110764,53.226212 213.288559,46.878441 207.365707,40.420937 
	C232.007935,40.418224 280.295288,67.829094 294.912445,90.804466 
	C283.143372,94.281227 271.705933,97.491158 260.387421,101.076469 
	C254.908920,102.811874 252.500519,100.778427 249.593292,96.052155 
	C242.033600,83.762283 233.516357,72.061409 225.157074,59.849754 
z"/>
<path fill="#0C4F65" opacity="1.000000" stroke="none" 
	d="
M117.221771,205.743713 
	C128.636642,220.867126 142.606277,232.812637 158.381409,244.533127 
	C145.560715,246.159073 133.854431,247.643692 121.906860,249.158905 
	C114.479683,232.124954 110.449997,214.586044 108.908150,196.446442 
	C109.307747,196.222336 109.707336,195.998230 110.106934,195.774109 
	C112.406548,199.002106 114.706154,202.230087 117.221771,205.743713 
z"/>
<path fill="#0D4F66" opacity="1.000000" stroke="none" 
	d="
M256.737396,194.744827 
	C255.806046,203.262253 255.416336,211.884888 253.788483,220.267044 
	C252.213654,228.376083 249.356552,236.235397 247.078262,244.208847 
	C246.131119,247.523636 244.501755,248.886169 240.597092,248.300537 
	C230.317856,246.758804 219.947998,245.821304 208.367188,244.500977 
	C227.498459,230.089279 244.822845,215.460846 256.554108,195.035492 
	C256.779083,194.785172 256.737396,194.744827 256.737396,194.744827 
z"/>
<path fill="#0D4F66" opacity="1.000000" stroke="none" 
	d="
M256.801758,194.803223 
	C256.976013,194.819550 257.127563,194.817810 257.279114,194.816071 
	C257.194519,194.825195 257.109955,194.834305 256.881378,194.794128 
	C256.737396,194.744827 256.779083,194.785172 256.801758,194.803223 
z"/>
</svg>