<svg version="1.1" id="Layer_1" xmlns="http://www.w3.org/2000/svg" xmlns:xlink="http://www.w3.org/1999/xlink" x="0px" y="0px" width="100%" viewBox="0 0 1611 366" enable-background="new 0 0 1611 366" xml:space="preserve"><path fill="none" opacity="1" stroke="none" d=" M1601.8,244 C1601.8,281.5 1601.8,318.9 1601.8,356.7 C1071.7,356.7 541.6,356.7 11.1,356.7 C11.1,355.8 11,354.8 11,353.9 C11,301.1 11,248.2 11,195.4 C11,194.4 11.1,193.4 11.6,192.7 C12.9,200 13.8,207 14.8,214.5 C17.7,232.2 23.2,248.7 31.9,264.3 C32.2,264.8 32.4,265.1 32.6,265.3 C32.6,265.3 32.6,265.4 32.7,265.7 C39.8,276.1 46.9,286.1 54.1,296.4 C64.1,308.7 75.9,318.6 89.2,327.2 C89.9,327.7 90.4,327.9 91,328.4 C91.4,328.9 91.7,329 92.3,329.2 C101.2,333.8 109.7,338.9 118.7,342.5 C158.4,358.5 198.7,359.7 239.2,345.8 C250.5,341.9 261.1,335.9 272.3,330.8 C272.7,330.6 272.9,330.3 273.4,330 C274,329.7 274.2,329.5 274.8,329.1 C289,320.2 301.7,310 312.1,297.2 C312.1,297.1 312.1,297.2 312.4,297.1 C312.8,296.7 313,296.4 313.4,296 C313.9,295.7 314,295.4 314.2,294.9 C314.6,294.6 314.8,294.3 315,294 C315,294 315,293.9 315.2,293.8 C315.8,293.2 316.1,292.7 316.3,292.2 C316.2,292.2 316.3,292.3 316.5,292.2 C316.9,291.8 317.1,291.4 317.2,291.1 C317.1,291.1 317.1,291.2 317.4,291 C318.6,289.7 319.4,288.4 320.2,287.2 C320.2,287.2 320.2,287.3 320.4,287.2 C320.9,286.7 321,286.4 321.4,286 C321.8,285.6 321.9,285.3 322.2,284.8 C322.8,284.1 323,283.6 323.6,282.9 C327.3,277.2 330.6,271.6 334.3,265.8 C344.4,247.2 351,227.8 353.6,206.7 C353.8,205.6 353.8,204.8 353.9,203.7 C354,202.9 354,202.5 354.1,201.6 C354.4,191.8 354.6,182.4 354.8,172.7 C354.8,171.9 354.7,171.4 354.6,170.6 C354.4,167.8 354.1,165.4 353.9,162.6 C351.3,141.7 345.1,122.3 335.6,104 C302.2,39.1 226.8,1.5 155.7,14.3 C104.5,23.5 64.9,50 37.2,94 C21.9,118.4 13.5,145.2 12.1,174.4 C12.1,175.1 12.1,175.5 12.1,176.2 C11.9,176.6 11.9,176.8 11.9,176.9 C11.6,175.8 11,174.6 11,173.4 C11,120.1 11,66.8 11,13.4 C11,12.8 11.1,12.1 11.1,11.3 C541.3,11.3 1071.4,11.3 1602,11.3 C1602,53.9 1602,96.5 1601.7,139.5 C1601.5,140 1601.1,140 1600.8,139.7 C1593.1,139.3 1585.6,139.3 1577.4,139.3 C1577.4,143.2 1577.4,146.8 1577.4,151.2 C1576.3,150.2 1575.9,150 1575.6,149.6 C1552,125.4 1512.7,129.4 1494.8,157.9 C1484.6,174.2 1483.4,191.9 1488.2,209.9 C1498.9,250.3 1546,263.1 1575.5,233.8 C1575.9,233.4 1576.4,233.2 1577.6,232.4 C1577.6,236.7 1577.6,240.3 1577.6,244 C1585.7,244 1593.4,244 1601.2,244 C1601.4,244 1601.8,244 1601.8,244 M945.1,145.2 C944.8,145.1 944.4,144.9 943.8,144.2 C923.5,129.2 895.3,130.3 877.4,147.7 C859.1,165.4 855.9,187.6 862.7,210.9 C875.7,255.8 926.9,260.1 949.9,233.4 C950.3,233 950.9,232.9 951.9,232.4 C951.9,236.6 951.9,240.2 951.9,244 C959.1,244 966.1,244 973.9,244.2 C974.3,242.6 975,241 975,239.3 C975.1,217.6 975,195.8 975,174 C975,163.7 975.1,153.4 975,143.1 C974.9,141.9 973.7,140.6 972.1,139.2 C965.7,139.3 959.4,139.3 952.3,139.3 C952.2,141.9 952.1,144.5 951.7,147.7 C951.8,148.4 951.8,149.1 951.4,150.4 C950.9,150.4 950.4,150.3 949.7,149.7 C948.7,148.8 947.8,147.9 946.6,146.5 C946.2,146.3 945.7,146 945.2,145.8 C945.2,145.8 945.3,145.8 945.1,145.2 M1283.2,139.2 C1282.7,141 1281.9,142.7 1281.9,144.4 C1281.8,176.6 1281.8,208.7 1281.8,240.8 C1281.8,242.4 1281.8,244 1281.8,245.7 C1289.8,245.7 1297.3,245.7 1305.1,245.7 C1305.1,223.2 1305.1,201.1 1305.3,178.5 C1305.3,177.9 1305.4,177.3 1305.9,176.2 C1306.2,174.5 1306.6,172.7 1307.2,170.7 C1307.2,170.7 1307.1,170.4 1307.7,170 C1307.8,169.3 1308,168.7 1308.7,167.7 C1315.1,156.9 1326.3,152.1 1339,154.4 C1351.1,156.7 1358.6,164.3 1360.7,176.8 C1361.3,180.5 1361.3,184.4 1361.3,188.2 C1361.4,205.1 1361.4,221.9 1361.3,238.7 C1361.3,241 1361.3,243.3 1361.3,245.8 C1369.2,245.8 1376.6,245.8 1384.4,245.8 C1384.4,229.1 1384.3,212.7 1384.4,196.2 C1384.4,190 1384.4,183.8 1385.1,177.7 C1386.6,164.1 1396.4,155 1409.9,154.1 C1425.2,153.1 1436.3,160.4 1439.6,174.2 C1440.5,178.2 1440.8,182.5 1440.9,186.6 C1441,204.8 1440.9,222.9 1440.9,241.1 C1440.9,242.7 1440.9,244.3 1440.9,245.7 C1449,245.7 1456.3,245.7 1463.8,245.7 C1463.8,222.9 1464.4,200.4 1463.7,177.9 C1462.9,153.5 1448.5,137.4 1425.1,134.4 C1405.6,131.9 1389.4,138.3 1378.5,155.5 C1360.3,129.8 1330.4,126.3 1306.3,147 C1306,147.2 1305.4,147 1305,146.1 C1304.1,143.9 1307.2,140.6 1302.1,139.2 C1296,139.3 1290,139.3 1283.2,139.2 M1110.8,267.1 C1111,266.1 1111.1,265 1111.3,263.8 C1111.3,263.8 1111.3,263.7 1111.8,263.1 C1111.9,262.1 1111.9,261 1112.3,259.4 C1112.5,258.3 1112.6,257.1 1113,255.1 C1113,217.7 1113.1,180.4 1113.1,143.1 C1113.1,142.1 1113.2,141 1112.9,140.1 C1112.7,139.7 1111.6,139.6 1110.1,139.2 C1104,139.2 1098,139.3 1091.3,139.2 C1090.9,139.8 1090.4,140.4 1089.8,141.9 C1089.8,144.8 1089.8,147.7 1089.8,151.4 C1088.5,150.2 1088,149.8 1087.6,149.4 C1068.9,130.2 1038.4,128.5 1017.8,145.5 C1000.2,160 993.3,186.3 1000.5,210.8 C1013.5,254.3 1064.3,261.3 1088.3,232.9 C1088.5,232.6 1089.1,232.6 1089.3,232.6 C1089.3,240.3 1089.9,248 1089.2,255.6 C1087.6,270.9 1079.2,280 1065,282.6 C1049.3,285.6 1034,278.9 1027.3,266.3 C1026.7,265.2 1025.4,263.8 1024.3,263.8 C1017.5,263.6 1010.8,263.7 1003.6,263.7 C1005.1,278.1 1012.2,288.3 1024.1,294.8 C1043.5,305.4 1063.9,306.5 1084.2,298 C1097.6,292.4 1106.5,282 1110.8,267.1 M475.4,213.1 C479.1,221.3 483.5,229.3 486.2,237.8 C489,246.4 493.8,249.3 502.5,248.2 C506,247.7 507.7,246.9 509.1,243.7 C519.3,220.2 529.8,196.9 540.2,173.5 C543.2,166.8 546.2,160.1 549.3,153.4 C549.6,153.5 550,153.5 550.3,153.6 C550.3,185 550.3,216.3 550.3,247.7 C558.3,247.7 565.7,247.7 573.2,247.7 C573.2,200.5 573.2,153.5 573.2,106.3 C566.4,106.3 559.9,106.4 553.4,106.2 C550,106.1 548.2,107 546.7,110.4 C537.3,132 527.6,153.5 518,175.1 C511.9,188.8 505.7,202.5 499.2,217 C498.2,214.8 497.4,213.4 496.8,211.9 C481.6,178.1 466.5,144.3 451.2,110.5 C450.4,108.9 448.6,106.5 447.2,106.5 C439.8,106 432.3,106.3 424.6,106.3 C424.6,153.7 424.6,200.6 424.6,247.6 C432.3,247.6 439.9,247.6 447.9,247.6 C447.9,216 447.9,184.8 447.9,153.7 C448.2,153.6 448.4,153.6 448.7,153.5 C457.5,173.2 466.3,192.8 475.4,213.1 M787.8,135.6 C770.5,131.5 754.7,134.6 741,146 C718.7,164.6 715.1,203.5 732.9,228.5 C752.4,255.6 792.6,256.5 811.9,233.2 C812.2,232.9 812.7,232.8 813.7,232.4 C813.7,236.5 813.7,240.3 813.7,244 C821.7,244 829.1,244 836.6,244 C836.6,194.9 836.6,146.1 836.6,97.4 C828.7,97.4 821.3,97.4 813.4,97.4 C813.4,115.1 813.4,132.4 813.4,150.9 C805.9,143 797.9,138.3 787.8,135.6 M1237.5,244.3 C1241.9,244.3 1246.4,244.3 1250.8,244.3 C1250.8,209 1250.8,174.2 1250.8,139.4 C1243.1,139.4 1235.7,139.4 1227.7,139.4 C1227.7,143.3 1227.7,147 1227.7,151.2 C1226.7,150.3 1226.3,150 1225.9,149.7 C1201.2,124.6 1160.6,129.9 1143.5,160.5 C1135.8,174.2 1134.2,189 1137.1,204.1 C1141.1,224.8 1152.1,240.5 1172.8,247.1 C1193.1,253.6 1211.2,249 1226.1,233.3 C1226.5,232.9 1227.1,232.8 1228.2,232.1 C1228.2,236.6 1228.2,240.3 1228.2,244.3 C1231.2,244.3 1233.9,244.3 1237.5,244.3 M641.4,228.5 C628.4,223.6 620.2,212.4 621.2,200.3 C649.3,200.3 677.5,200.3 705.8,200.3 C707.5,186.6 706.6,173.8 700.4,161.8 C687.4,136 653.3,125.9 625.6,139.8 C606.4,149.3 598,166 596.5,186.6 C594,220.3 614.2,246.7 647.4,249.7 C670.7,251.7 692.1,240.2 701.4,219.7 C702.1,218.2 702.6,216.6 703.4,214.5 C695.4,214.5 688.2,214.4 681.1,214.6 C679.8,214.6 678.1,215.4 677.4,216.4 C669,230.1 656.4,231.9 641.4,228.5 z"/><path fill="#1F7691" opacity="1" stroke="none" d=" M12.2,174 C13.5,145.2 21.9,118.4 37.2,94 C64.9,50 104.5,23.5 155.7,14.3 C226.8,1.5 302.2,39.1 335.6,104 C345.1,122.3 351.3,141.7 353.6,162.9 C353.7,166.1 354.2,168.5 354.6,171 C354.7,171.4 354.8,171.9 354.5,172.8 C352.8,175.8 351.6,178.5 350.4,181.2 C348,180.3 346.4,179.7 344.6,178.9 C344.1,182 343.7,184.5 343.2,186.5 C343.1,182.7 343.2,179.4 343.6,175.9 C343.5,172.5 343.1,169.2 342.4,165.5 C342.1,163.7 342,162.2 341.8,160.7 C329,73.1 248.5,12.9 160.6,25.9 C101.4,34.7 60.1,67.7 35.9,122.2 C27.6,140.9 24.9,160.8 23.4,180.8 C20,181.6 16.8,182.6 13.6,183.6 C13.1,181.7 12.7,179.9 12.2,178.1 C12.1,177.9 12.1,177.7 12,177.2 C11.9,176.8 11.9,176.6 12.3,176.1 C12.4,175.1 12.3,174.6 12.2,174 z"/><path fill="#126A85" opacity="1" stroke="none" d=" M12.1,178.5 C12.7,179.9 13.1,181.7 13.6,183.6 C16.8,182.6 20,181.6 23.5,181.3 C23.8,185.6 23.7,189.3 23.5,193.2 C23.5,194.3 23.6,195.1 23.9,196.4 C24.6,202.2 25.2,207.7 25.5,213.3 C25.6,214.4 25.9,215.2 26.2,216.1 C26.3,216.2 26.2,216.4 26.1,216.8 C24.7,218.9 23.4,220.6 21.8,222.8 C19,219.4 16.9,216.7 14.8,214.1 C13.8,207 12.9,200 12,192.5 C12,187.7 12,183.3 12.1,178.5 z"/><path fill="none" opacity="1" stroke="none" d=" M1601.1,140 C1601.1,140 1601.5,140 1601.6,140 C1601.9,174.4 1601.9,208.7 1601.9,243.5 C1601.8,244 1601.4,244 1601.2,243.5 C1601,208.7 1601.1,174.4 1601.1,140 z"/><path fill="#063D54" opacity="1" stroke="none" d=" M475.2,212.8 C466.3,192.8 457.5,173.2 448.7,153.5 C448.4,153.6 448.2,153.6 447.9,153.7 C447.9,184.8 447.9,216 447.9,247.6 C439.9,247.6 432.3,247.6 424.6,247.6 C424.6,200.6 424.6,153.7 424.6,106.3 C432.3,106.3 439.8,106 447.2,106.5 C448.6,106.5 450.4,108.9 451.2,110.5 C466.5,144.3 481.6,178.1 496.8,211.9 C497.4,213.4 498.2,214.8 499.2,217 C505.7,202.5 511.9,188.8 518,175.1 C527.6,153.5 537.3,132 546.7,110.4 C548.2,107 550,106.1 553.4,106.2 C559.9,106.4 566.4,106.3 573.2,106.3 C573.2,153.5 573.2,200.5 573.2,247.7 C565.7,247.7 558.3,247.7 550.3,247.7 C550.3,216.3 550.3,185 550.3,153.6 C550,153.5 549.6,153.5 549.3,153.4 C546.2,160.1 543.2,166.8 540.2,173.5 C529.8,196.9 519.3,220.2 509.1,243.7 C507.7,246.9 506,247.7 502.5,248.2 C493.8,249.3 489,246.4 486.2,237.8 C483.5,229.3 479.1,221.3 475.2,212.8 z"/><path fill="#043B53" opacity="1" stroke="none" d=" M1112.7,256 C1112.6,257.1 1112.5,258.3 1111.9,260 C1111.4,261.6 1111.3,262.7 1111.3,263.7 C1111.3,263.7 1111.3,263.8 1111,264.1 C1110.5,265.5 1110.4,266.6 1110.3,267.7 C1106.5,282 1097.6,292.4 1084.2,298 C1063.9,306.5 1043.5,305.4 1024.1,294.8 C1012.2,288.3 1005.1,278.1 1003.6,263.7 C1010.8,263.7 1017.5,263.6 1024.3,263.8 C1025.4,263.8 1026.7,265.2 1027.3,266.3 C1034,278.9 1049.3,285.6 1065,282.6 C1079.2,280 1087.6,270.9 1089.2,255.6 C1089.9,248 1089.3,240.3 1089.3,232.6 C1089.1,232.6 1088.5,232.6 1088.3,232.9 C1064.3,261.3 1013.5,254.3 1000.5,210.8 C993.3,186.3 1000.2,160 1017.8,145.5 C1038.4,128.5 1068.9,130.2 1087.6,149.4 C1088,149.8 1088.5,150.2 1089.8,151.4 C1089.8,147.7 1089.8,144.8 1090.2,141.4 C1091.1,140.4 1091.5,139.9 1092,139.4 C1098,139.3 1104,139.2 1110.6,139.7 C1111.4,142.3 1112,144.4 1112,146.5 C1112,181.2 1112,215.9 1112,250.7 C1112,252.4 1112.5,254.2 1112.7,256 M1042.5,156.8 C1032.2,161.1 1025.8,169 1023.3,179.5 C1021.9,185.2 1021.7,191.4 1022.1,197.3 C1024.3,223.7 1052.4,238.2 1073.8,224.1 C1084.2,217.3 1088.6,207 1089.7,194.9 C1092.2,166.8 1069.2,147.8 1042.5,156.8 z"/><path fill="#033B53" opacity="1" stroke="none" d=" M1305.4,176.8 C1305.4,177.3 1305.3,177.9 1304.9,179 C1304.3,181.4 1304,183.2 1304,185 C1304,203.2 1303.9,221.3 1304.1,239.5 C1304.1,243.5 1303,245.4 1298.7,245.1 C1295.2,244.8 1291.7,244.7 1288.2,245.1 C1284,245.5 1282.9,243.8 1282.9,239.7 C1283.1,210.1 1283,180.4 1283,150.7 C1283.1,147 1283.7,143.2 1284,139.4 C1290,139.3 1296,139.3 1302.6,139.6 C1303.7,142.4 1304.3,144.7 1304.9,147 C1305.4,147 1306,147.2 1306.3,147 C1330.4,126.3 1360.3,129.8 1378.5,155.5 C1389.4,138.3 1405.6,131.9 1425.1,134.4 C1448.5,137.4 1462.9,153.5 1463.7,177.9 C1464.4,200.4 1463.8,222.9 1463.8,245.7 C1456.3,245.7 1449,245.7 1440.9,245.7 C1440.9,244.3 1440.9,242.7 1440.9,241.1 C1440.9,222.9 1441,204.8 1440.9,186.6 C1440.8,182.5 1440.5,178.2 1439.6,174.2 C1436.3,160.4 1425.2,153.1 1409.9,154.1 C1396.4,155 1386.6,164.1 1385.1,177.7 C1384.4,183.8 1384.4,190 1384.4,196.2 C1384.3,212.7 1384.4,229.1 1384.4,245.8 C1376.6,245.8 1369.2,245.8 1361.3,245.8 C1361.3,243.3 1361.3,241 1361.3,238.7 C1361.4,221.9 1361.4,205.1 1361.3,188.2 C1361.3,184.4 1361.3,180.5 1360.7,176.8 C1358.6,164.3 1351.1,156.7 1339,154.4 C1326.3,152.1 1315.1,156.9 1308.2,168 C1307.4,169.1 1307.3,169.7 1307.1,170.4 C1307.1,170.4 1307.2,170.7 1306.7,171.1 C1306,173.2 1305.7,175 1305.4,176.8 z"/><path fill="#043B53" opacity="1" stroke="none" d=" M788.2,135.7 C797.9,138.3 805.9,143 813.4,150.9 C813.4,132.4 813.4,115.1 813.4,97.4 C821.3,97.4 828.7,97.4 836.6,97.4 C836.6,146.1 836.6,194.9 836.6,244 C829.1,244 821.7,244 813.7,244 C813.7,240.3 813.7,236.5 813.7,232.4 C812.7,232.8 812.2,232.9 811.9,233.2 C792.6,256.5 752.4,255.6 732.9,228.5 C715.1,203.5 718.7,164.6 741,146 C754.7,134.6 770.5,131.5 788.2,135.7 M811.7,204.9 C812.1,198.1 813.4,191.3 812.8,184.6 C811.5,169 799.5,156.8 784.2,154.3 C770,152 755.4,159.9 749.1,173.5 C745.6,181.1 745.1,189.2 745.9,197.4 C747.6,214.3 759.7,227.3 775.9,229.3 C791.7,231.2 805.6,222 811.7,204.9 z"/><path fill="#043B53" opacity="1" stroke="none" d=" M1600.8,139.7 C1601.1,174.4 1601,208.7 1601,243.5 C1593.4,244 1585.7,244 1577.6,244 C1577.6,240.3 1577.6,236.7 1577.6,232.4 C1576.4,233.2 1575.9,233.4 1575.5,233.8 C1546,263.1 1498.9,250.3 1488.2,209.9 C1483.4,191.9 1484.6,174.2 1494.8,157.9 C1512.7,129.4 1552,125.4 1575.6,149.6 C1575.9,150 1576.3,150.2 1577.4,151.2 C1577.4,146.8 1577.4,143.2 1577.4,139.3 C1585.6,139.3 1593.1,139.3 1600.8,139.7 M1571.6,213.9 C1577.3,204.7 1578.3,194.6 1576.9,184.1 C1574.9,168.2 1562.1,155.6 1546.7,154.1 C1530.7,152.6 1515.7,162.4 1511.5,178.2 C1509.8,184.6 1509.6,191.7 1510.2,198.4 C1511.3,212.9 1521.9,225 1535.5,228.6 C1549,232.1 1562.5,226.8 1571.6,213.9 z"/><path fill="#043B53" opacity="1" stroke="none" d=" M1237,244.3 C1233.9,244.3 1231.2,244.3 1228.2,244.3 C1228.2,240.3 1228.2,236.6 1228.2,232.1 C1227.1,232.8 1226.5,232.9 1226.1,233.3 C1211.2,249 1193.1,253.6 1172.8,247.1 C1152.1,240.5 1141.1,224.8 1137.1,204.1 C1134.2,189 1135.8,174.2 1143.5,160.5 C1160.6,129.9 1201.2,124.6 1225.9,149.7 C1226.3,150 1226.7,150.3 1227.7,151.2 C1227.7,147 1227.7,143.3 1227.7,139.4 C1235.7,139.4 1243.1,139.4 1250.8,139.4 C1250.8,174.2 1250.8,209 1250.8,244.3 C1246.4,244.3 1241.9,244.3 1237,244.3 M1180.5,156.8 C1159.1,166.7 1152.7,196.9 1167.8,216.6 C1178.3,230.3 1197.2,233.7 1211.6,224.3 C1221.7,217.8 1226.2,208 1227.6,196.3 C1231.1,167.6 1207.8,147.6 1180.5,156.8 z"/><path fill="#043B53" opacity="1" stroke="none" d=" M641.7,228.6 C656.4,231.9 669,230.1 677.4,216.4 C678.1,215.4 679.8,214.6 681.1,214.6 C688.2,214.4 695.4,214.5 703.4,214.5 C702.6,216.6 702.1,218.2 701.4,219.7 C692.1,240.2 670.7,251.7 647.4,249.7 C614.2,246.7 594,220.3 596.5,186.6 C598,166 606.4,149.3 625.6,139.8 C653.3,125.9 687.4,136 700.4,161.8 C706.6,173.8 707.5,186.6 705.8,200.3 C677.5,200.3 649.3,200.3 621.2,200.3 C620.2,212.4 628.4,223.6 641.7,228.6 M679.5,169.2 C672.3,156.7 657.4,150.6 643.1,154.4 C630.6,157.6 621,169.3 621.1,181.6 C641.3,181.6 661.5,181.6 682.7,181.6 C681.7,177.4 680.8,173.7 679.5,169.2 z"/><path fill="#043B53" opacity="1" stroke="none" d=" M951.9,149.8 C951.8,149.1 951.8,148.4 952.1,147.1 C952.7,144.1 952.9,141.8 953,139.4 C959.4,139.3 965.7,139.3 972.6,139.7 C973.4,141.9 974,143.7 974,145.5 C974,176.4 974,207.3 974,238.2 C974,240.2 973.3,242.1 973,244 C966.1,244 959.1,244 951.9,244 C951.9,240.2 951.9,236.6 951.9,232.4 C950.9,232.9 950.3,233 949.9,233.4 C926.9,260.1 875.7,255.8 862.7,210.9 C855.9,187.6 859.1,165.4 877.4,147.7 C895.3,130.3 923.5,129.2 944,144.7 C944.6,145.4 945,145.6 945.3,145.8 C945.3,145.8 945.2,145.8 945.2,146 C945.8,146.5 946.3,146.8 946.8,147.1 C947.8,147.9 948.7,148.8 949.9,150.3 C950.7,150.5 951.3,150.2 951.9,149.8 M884.8,180.6 C884.6,186.4 883.6,192.2 884.1,197.9 C886.2,220.3 907.8,234.8 928.3,227.9 C941.8,223.3 950.5,210.7 951.6,193.8 C952.9,174.1 941.2,157.9 923.1,154.4 C906.2,151.2 890.6,161.6 884.8,180.6 z"/><path fill="#083F56" opacity="1" stroke="none" d=" M274.4,329.2 C274.2,329.5 274,329.7 273.2,330.1 C272.4,330.3 272.2,330.5 272,330.8 C261.1,335.9 250.5,341.9 239.2,345.8 C198.7,359.7 158.4,358.5 118.7,342.5 C109.7,338.9 101.2,333.8 92.5,328.9 C95.5,329.1 98.9,329 101.2,330.6 C103.2,332 104.1,334.1 106.5,331.7 C108.1,330.2 109.5,328.5 111.4,327 C145.5,343.3 180.9,346.4 217.4,340 C233.1,337.3 247.6,331 261.7,324.1 C261.7,325.1 261.6,325.8 261.5,326.4 C261.4,327.8 261.3,329.2 261.1,330.6 C262.5,330.5 263.9,330.5 265.3,330.4 C268.4,330 271.4,329.6 274.4,329.2 M113.4,331.1 C112.9,331.3 112.3,331.2 112,331.5 C111.1,332.5 110.3,333.6 109.5,334.6 C110.9,334.9 112.6,335.9 113.7,335.4 C115.5,334.6 117.2,332.9 113.4,331.1 z"/><path fill="#0A4860" opacity="1" stroke="none" d=" M274.8,329.1 C271.4,329.6 268.4,330 265.3,330.4 C263.9,330.5 262.5,330.5 261.1,330.6 C261.3,329.2 261.4,327.8 261.5,326.4 C261.6,325.8 261.7,325.1 261.7,324.1 C261.7,323.8 261.7,323.8 262,323.7 C262.5,323.5 262.8,323.2 263.2,322.7 C274.6,313.6 285.8,304.9 297,296.5 C297.8,297.7 298.4,299 299.3,299.3 C303.8,300.6 308,298.8 312.1,297.2 C301.7,310 289,320.2 274.8,329.1 z"/><path fill="#08455D" opacity="1" stroke="none" d=" M111,326.9 C109.5,328.5 108.1,330.2 106.5,331.7 C104.1,334.1 103.2,332 101.2,330.6 C98.9,329 95.5,329.1 92.3,328.6 C91.7,329 91.4,328.9 91,328.1 C90.3,327.3 89.7,327.1 89,326.9 C75.9,318.6 64.1,308.7 54.2,296.2 C57.7,297.8 61.5,299.6 64.4,302.3 C67.3,305.1 68.3,303.6 69.3,301.2 C69.9,299.9 69.9,298.3 70.4,297 C82,308.7 95.1,317.8 109,326.1 C109.4,326.2 109.7,326.2 110.2,326.3 C110.7,326.4 110.9,326.6 111,326.9 z"/><path fill="#095C77" opacity="1" stroke="none" d=" M14.8,214.5 C16.9,216.7 19,219.4 21.8,222.8 C23.4,220.6 24.7,218.9 26.3,217.2 C28.3,223 29.5,228.9 31.6,234.6 C35.2,243.8 39.3,252.8 42.8,262.1 C39.2,263.3 35.9,264.3 32.6,265.4 C32.6,265.4 32.6,265.3 32.7,265 C32.4,264.5 32.2,264.2 31.9,264 C23.2,248.7 17.7,232.2 14.8,214.5 z"/><path fill="#08506A" opacity="1" stroke="none" d=" M32.7,265.7 C35.9,264.3 39.2,263.3 43.1,262.3 C50.2,271.3 56.7,280.4 63.2,289.8 C63.6,290.4 63.9,290.6 64.2,290.9 C64.1,290.9 64.2,290.7 64.2,291 C64.6,291.5 64.9,291.7 65.2,291.9 C65.1,291.9 65.1,291.8 65.2,292 C65.6,292.5 65.9,292.7 66.1,292.9 C66.1,292.9 66.1,292.8 66.2,293.1 C66.6,293.5 66.9,293.7 67.1,293.9 C67.1,293.9 67.1,293.8 67.2,294.1 C67.6,294.5 67.9,294.7 68.1,294.9 C68,294.9 68.1,294.8 68.2,295.1 C68.6,295.5 68.8,295.7 69.1,296 C69,296 69.1,295.9 69.2,296.1 C69.6,296.6 69.8,296.8 70.1,296.9 C70.1,297 70.1,296.9 70.1,296.9 C69.9,298.3 69.9,299.9 69.3,301.2 C68.3,303.6 67.3,305.1 64.4,302.3 C61.5,299.6 57.7,297.8 54.1,295.8 C46.9,286.1 39.8,276.1 32.7,265.7 z"/><path fill="#0A5B76" opacity="1" stroke="none" d=" M353.4,207 C351,227.8 344.4,247.2 333.9,265.8 C330.3,265.6 327.4,262.9 324.3,265.8 C324.2,265.8 322.9,264.6 322.3,263.7 C327.8,249.6 333.2,235.9 338.7,222.7 C339.4,231.6 340.2,232.5 347,231.3 C348.9,223.3 350.9,215.1 353,207 C353.2,207 353.4,207 353.4,207 z"/><path fill="#074F69" opacity="1" stroke="none" d=" M322.2,264 C322.9,264.6 324.2,265.8 324.3,265.8 C327.4,262.9 330.3,265.6 333.6,266 C330.6,271.6 327.3,277.2 323.3,283 C322.5,283.9 322.2,284.4 322,285 C321.9,285.3 321.8,285.6 321.1,286.1 C320.5,286.6 320.3,287 320.2,287.3 C320.2,287.3 320.2,287.2 319.8,287.2 C318.7,288.5 317.9,289.8 317.1,291.2 C317.1,291.2 317.1,291.1 316.9,291.2 C316.5,291.7 316.4,292 316.3,292.3 C316.3,292.3 316.2,292.2 316,292.3 C315.5,292.9 315.2,293.4 315,293.9 C315,293.9 315,294 314.8,294.1 C314.3,294.4 314.1,294.7 314,295 C314,295.4 313.9,295.7 313.1,296.1 C312.5,296.6 312.3,296.9 312.1,297.2 C312.1,297.2 312.1,297.1 312.1,297.2 C308,298.8 303.8,300.6 299.3,299.3 C298.4,299 297.8,297.7 297.1,296.2 C297.8,295 298.4,294.5 299.2,293.9 C299.7,293.6 299.9,293.3 300,292.7 C300.4,292.3 300.7,292.1 301.2,291.9 C301.6,291.5 301.8,291.2 302.1,290.6 C308.9,281.5 315.5,272.8 322.2,264 z"/><path fill="#0B6480" opacity="1" stroke="none" d=" M352.9,207 C350.9,215.1 348.9,223.3 347,231.3 C340.2,232.5 339.4,231.6 338.7,222.7 C338.7,222.1 338.7,222.1 339.1,221.9 C340,218.9 340.4,216.2 340.8,213 C341.2,209.7 341.6,206.9 342.3,203.8 C342.4,203.1 342.4,202.6 342.2,201.7 C342.3,200.9 342.4,200.5 342.9,199.9 C346.8,200.6 350.4,201.3 354,202 C354,202.5 354,202.9 353.7,203.9 C353.2,205.3 353,206.1 352.9,207 z"/><path fill="#186D88" opacity="1" stroke="none" d=" M354.1,201.6 C350.4,201.3 346.8,200.6 342.8,199.5 C342.7,195.1 343,191.1 343.2,187 C343.7,184.5 344.1,182 344.6,178.9 C346.4,179.7 348,180.3 350.4,181.2 C351.6,178.5 352.8,175.8 354.4,173.1 C354.6,182.4 354.4,191.8 354.1,201.6 z"/><path fill="#133A4D" opacity="1" stroke="none" d=" M1283.6,139.3 C1283.7,143.2 1283.1,147 1283,150.7 C1283,180.4 1283.1,210.1 1282.9,239.7 C1282.9,243.8 1284,245.5 1288.2,245.1 C1291.7,244.7 1295.2,244.8 1298.7,245.1 C1303,245.4 1304.1,243.5 1304.1,239.5 C1303.9,221.3 1304,203.2 1304,185 C1304,183.2 1304.3,181.4 1304.7,179.3 C1305.1,201.1 1305.1,223.2 1305.1,245.7 C1297.3,245.7 1289.8,245.7 1281.8,245.7 C1281.8,244 1281.8,242.4 1281.8,240.8 C1281.8,208.7 1281.8,176.6 1281.9,144.4 C1281.9,142.7 1282.7,141 1283.6,139.3 z"/><path fill="#1B3E4F" opacity="1" stroke="none" d=" M1112.8,255.5 C1112.5,254.2 1112,252.4 1112,250.7 C1112,215.9 1112,181.2 1112,146.5 C1112,144.4 1111.4,142.3 1111,139.8 C1111.6,139.6 1112.7,139.7 1112.9,140.1 C1113.2,141 1113.1,142.1 1113.1,143.1 C1113.1,180.4 1113,217.7 1112.8,255.5 z"/><path fill="#183D4E" opacity="1" stroke="none" d=" M973.4,244.1 C973.3,242.1 974,240.2 974,238.2 C974,207.3 974,176.4 974,145.5 C974,143.7 973.4,141.9 973.1,139.8 C973.7,140.6 974.9,141.9 975,143.1 C975.1,153.4 975,163.7 975,174 C975,195.8 975.1,217.6 975,239.3 C975,241 974.3,242.6 973.4,244.1 z"/><path fill="#183D4E" opacity="1" stroke="none" d=" M952.7,139.4 C952.9,141.8 952.7,144.1 952.2,146.8 C952.1,144.5 952.2,141.9 952.7,139.4 z"/><path fill="#186D88" opacity="1" stroke="none" d=" M354.6,170.6 C354.2,168.5 353.7,166.1 353.6,163.3 C354.1,165.4 354.4,167.8 354.6,170.6 z"/><path fill="#133A4D" opacity="1" stroke="none" d=" M1304.9,146.6 C1304.3,144.7 1303.7,142.4 1303,139.7 C1307.2,140.6 1304.1,143.9 1304.9,146.6 z"/><path fill="#0A4860" opacity="1" stroke="none" d=" M317.4,291 C317.9,289.8 318.7,288.5 319.9,287.2 C319.4,288.4 318.6,289.7 317.4,291 z"/><path fill="#133A4D" opacity="1" stroke="none" d=" M1305.6,176.5 C1305.7,175 1306,173.2 1306.6,171.2 C1306.6,172.7 1306.2,174.5 1305.6,176.5 z"/><path fill="#1B3E4F" opacity="1" stroke="none" d=" M1091.7,139.3 C1091.5,139.9 1091.1,140.4 1090.3,141 C1090.4,140.4 1090.9,139.8 1091.7,139.3 z"/><path fill="#083F56" opacity="1" stroke="none" d=" M89.2,327.2 C89.7,327.1 90.3,327.3 90.9,327.8 C90.4,327.9 89.9,327.7 89.2,327.2 z"/><path fill="#183D4E" opacity="1" stroke="none" d=" M951.7,150.1 C951.3,150.2 950.7,150.5 950,150.6 C950.4,150.3 950.9,150.4 951.7,150.1 z"/><path fill="#186D88" opacity="1" stroke="none" d=" M353,207 C353,206.1 353.2,205.3 353.6,204.2 C353.8,204.8 353.8,205.6 353.6,206.7 C353.4,207 353.2,207 353,207 z"/><path fill="#1B3E4F" opacity="1" stroke="none" d=" M1110.5,267.4 C1110.4,266.6 1110.5,265.5 1111,264.2 C1111.1,265 1111,266.1 1110.5,267.4 z"/><path fill="#1B3E4F" opacity="1" stroke="none" d=" M1111.6,263.4 C1111.3,262.7 1111.4,261.6 1111.7,260.3 C1111.9,261 1111.9,262.1 1111.6,263.4 z"/><path fill="#0A4860" opacity="1" stroke="none" d=" M315.2,293.8 C315.2,293.4 315.5,292.9 316.1,292.3 C316.1,292.7 315.8,293.2 315.2,293.8 z"/><path fill="#126A85" opacity="1" stroke="none" d=" M12.1,174.4 C12.3,174.6 12.4,175.1 12.3,175.8 C12.1,175.5 12.1,175.1 12.1,174.4 z"/><path fill="#133A4D" opacity="1" stroke="none" d=" M1307.4,170.2 C1307.3,169.7 1307.4,169.1 1307.9,168.2 C1308,168.7 1307.8,169.3 1307.4,170.2 z"/><path fill="#0A4860" opacity="1" stroke="none" d=" M322.2,284.8 C322.2,284.4 322.5,283.9 323,283.2 C323,283.6 322.8,284.1 322.2,284.8 z"/><path fill="#183D4E" opacity="1" stroke="none" d=" M946.7,146.8 C946.3,146.8 945.8,146.5 945.3,146 C945.7,146 946.2,146.3 946.7,146.8 z"/><path fill="#08506A" opacity="1" stroke="none" d=" M31.9,264.3 C32.2,264.2 32.4,264.5 32.7,265.1 C32.4,265.1 32.2,264.8 31.9,264.3 z"/><path fill="#0A4860" opacity="1" stroke="none" d=" M272.3,330.8 C272.2,330.5 272.4,330.3 272.9,330.1 C272.9,330.3 272.7,330.6 272.3,330.8 z"/><path fill="#183D4E" opacity="1" stroke="none" d=" M945.2,145.5 C945,145.6 944.6,145.4 944.2,145 C944.4,144.9 944.8,145.1 945.2,145.5 z"/><path fill="#0A4860" opacity="1" stroke="none" d=" M312.4,297.1 C312.3,296.9 312.5,296.6 312.9,296.1 C313,296.4 312.8,296.7 312.4,297.1 z"/><path fill="#0A4860" opacity="1" stroke="none" d=" M320.4,287.2 C320.3,287 320.5,286.6 320.9,286.2 C321,286.4 320.9,286.7 320.4,287.2 z"/><path fill="#0A4860" opacity="1" stroke="none" d=" M314.2,294.9 C314.1,294.7 314.3,294.4 314.7,294.1 C314.8,294.3 314.6,294.6 314.2,294.9 z"/><path fill="#0A4860" opacity="1" stroke="none" d=" M316.5,292.2 C316.4,292 316.5,291.7 316.9,291.2 C317.1,291.4 316.9,291.8 316.5,292.2 z"/><path fill="none" opacity="1" stroke="none" d=" M343.2,186.5 C343,191.1 342.7,195.1 342.5,199.6 C342.4,200.5 342.3,200.9 342.1,202 C342.1,203.1 342.1,203.5 342.1,204 C341.6,206.9 341.2,209.7 340.5,213.3 C339.8,216.7 339.3,219.4 338.7,222.1 C338.7,222.1 338.7,222.1 338.6,222.2 C333.2,235.9 327.8,249.6 322.3,263.7 C315.5,272.8 308.9,281.5 301.8,290.7 C301.3,291.4 301.1,291.7 300.9,292 C300.7,292.1 300.4,292.3 299.8,292.8 C299.4,293.4 299.2,293.7 299,294 C298.4,294.5 297.8,295 297.1,295.8 C285.8,304.9 274.6,313.6 262.9,322.7 C262.2,323.3 261.9,323.5 261.7,323.8 C261.7,323.8 261.7,323.8 261.6,323.8 C247.6,331 233.1,337.3 217.4,340 C180.9,346.4 145.5,343.3 111.4,327 C110.9,326.6 110.7,326.4 110,326.1 C109.3,325.9 109.2,325.9 109,325.9 C95.1,317.8 82,308.7 70.4,297 C70.1,296.9 70.1,297 70,296.7 C69.7,296.2 69.4,296.1 69.1,295.9 C69.1,295.9 69,296 69,295.7 C68.7,295.2 68.4,295 68.1,294.8 C68.1,294.8 68,294.9 68,294.7 C67.7,294.2 67.4,294 67.1,293.8 C67.1,293.8 67.1,293.9 67,293.7 C66.7,293.2 66.4,293 66.1,292.8 C66.1,292.8 66.1,292.9 66,292.7 C65.7,292.2 65.4,292 65.1,291.8 C65.1,291.8 65.1,291.9 65.1,291.6 C64.8,291.1 64.5,290.9 64.2,290.7 C64.2,290.7 64.1,290.9 64.1,290.6 C63.8,290 63.4,289.7 63.1,289.5 C56.7,280.4 50.2,271.3 43.4,262.1 C39.3,252.8 35.2,243.8 31.6,234.6 C29.5,228.9 28.3,223 26.5,216.8 C26.2,216.4 26.3,216.2 26.2,215.7 C26,214.5 25.9,213.8 25.8,213.1 C25.2,207.7 24.6,202.2 24,196 C23.9,194.5 23.8,193.8 23.7,193 C23.7,189.3 23.8,185.6 23.7,181.5 C24.9,160.8 27.6,140.9 35.9,122.2 C60.1,67.7 101.4,34.7 160.6,25.9 C248.5,12.9 329,73.1 341.8,160.7 C342,162.2 342.1,163.7 342.4,166 C342.8,169.8 343,172.9 343.2,176 C343.2,179.4 343.1,182.7 343.2,186.5 M256.3,195.3 C244.8,215.5 227.5,230.1 208.4,244.5 C219.9,245.8 230.3,246.8 240.6,248.3 C244.5,248.9 246.1,247.5 247.1,244.2 C249.4,236.2 252.2,228.4 253.8,220.3 C255.4,211.9 255.8,203.3 257,194.8 C257.1,194.8 257.2,194.8 257.3,194.8 C257.1,194.8 257,194.8 256.3,195.3 M190.1,242.6 C203.3,232.1 217,222 229.7,210.8 C239.6,202 246.8,190.9 251.3,178.3 C258.6,157.4 251.3,135.5 233.5,123.8 C218.5,114 192.7,119.2 186.1,134.1 C185.6,135.4 184.5,136.5 184.2,136.9 C179.7,132.5 176,127.2 170.9,124.2 C150.6,112.1 127,120.5 117,142.7 C108.9,160.4 112.5,176.8 122.4,192.4 C136.1,214.1 156,229.1 177,243 C181.3,245.8 185.2,246.8 190.1,242.6 M233.9,95.7 C219.7,74.5 204.3,54.4 183.2,39.7 C159.9,57.7 141.4,78.7 128.3,104.4 C137.9,111.1 225.6,111.3 238.2,104.7 C236.9,101.9 235.6,99.2 233.9,95.7 M225.9,260.5 C193.4,257 161.1,257.1 128.6,262.1 C128.9,263.4 128.9,264 129.2,264.6 C129.8,266.2 130.5,267.7 131.3,269.1 C143.7,289.7 158.6,308.1 177.1,323.4 C183.6,328.7 183.8,328.5 190.3,323.1 C207.6,308.2 222.1,291 233.9,271.5 C235.6,268.7 236.9,265.7 238.7,262.1 C234.3,261.6 230.5,261.1 225.9,260.5 M99,146.4 C101.7,136.2 104.5,126 107.1,116.4 C93.1,111.7 79.6,107.4 66.1,102.7 C63.5,101.8 62.3,102.3 60.9,104.5 C49.6,122.2 42,141.5 38.3,162.1 C37.4,166.9 38.2,171.9 38.2,176.6 C57.3,176.6 75.9,176.6 94.5,176.6 C96,166.6 97.4,156.9 99,146.4 M318.2,128.3 C314.3,120.7 310.3,113 306.4,105.3 C305.1,102.7 303.4,102.2 300.7,103.1 C287.2,107.4 273.6,111.7 260.5,115.8 C264.7,135.8 269,156.1 273.4,176.6 C291.2,176.6 309.9,176.6 328.9,176.6 C329.9,159.5 324.4,144.3 318.2,128.3 M45,230.5 C45.4,231.6 45.6,232.7 46.1,233.8 C50.8,243.4 55.5,253.1 60.5,262.7 C61.1,263.9 63.9,265.2 65.1,264.8 C79,260.5 92.8,255.9 106,251.6 C101.9,231.8 97.7,211.7 93.5,191.2 C75.6,191.2 56.8,191.2 37.8,191.2 C38,204.7 40.6,217.3 45,230.5 M307.7,260.2 C320.6,239 328.2,216.2 329.1,191.1 C309.6,191.1 290.9,191.1 273.4,191.1 C269.1,211.7 264.9,231.7 260.6,252 C275,256.5 289.8,261.1 304.7,265.7 C305.6,264 306.4,262.4 307.7,260.2 M284.2,273.1 C275.8,270.8 267.3,268.6 258.8,266.2 C254.9,265.1 252.4,266 250.4,269.8 C240.2,289.6 226.7,307.1 210.9,322.8 C209.7,324 208.8,325.4 207.3,327.2 C235.6,325.5 285.6,296.6 294,277.4 C291,276 288,274.7 284.2,273.1 M88.1,271.6 C82.9,273.5 77.7,275.4 72.4,277.3 C84.1,298.4 138.6,329.3 158.6,326.6 C158.3,326.2 158.1,325.8 157.8,325.4 C141.3,308.2 126,290 115.3,268.5 C113.7,265.5 111.6,265.5 109.1,266.1 C102.3,267.7 95.6,269.5 88.1,271.6 M114.8,100.6 C125.1,77.4 141.7,58.8 158.8,40.5 C123.6,46.1 95.4,63.4 72.3,90.1 C85.1,94.7 97.6,98.3 110.3,101.8 C111.5,102.2 113,101.5 114.8,100.6 M225.4,60.1 C233.5,72.1 242,83.8 249.6,96.1 C252.5,100.8 254.9,102.8 260.4,101.1 C271.7,97.5 283.1,94.3 294.9,90.8 C280.3,67.8 232,40.4 207.4,40.4 C213.3,46.9 219.1,53.2 225.4,60.1 M117,205.5 C114.7,202.2 112.4,199 110.1,195.8 C109.7,196 109.3,196.2 108.9,196.4 C110.4,214.6 114.5,232.1 121.9,249.2 C133.9,247.6 145.6,246.2 158.4,244.5 C142.6,232.8 128.6,220.9 117,205.5 z"/><path fill="#186D88" opacity="1" stroke="none" d=" M343.6,175.9 C343,172.9 342.8,169.8 342.6,166.3 C343.1,169.2 343.5,172.5 343.6,175.9 z"/><path fill="#095C77" opacity="1" stroke="none" d=" M25.5,213.3 C25.9,213.8 26,214.5 26.1,215.7 C25.9,215.2 25.6,214.4 25.5,213.3 z"/><path fill="#1F7691" opacity="1" stroke="none" d=" M23.5,193.2 C23.8,193.8 23.9,194.5 23.9,195.6 C23.6,195.1 23.5,194.3 23.5,193.2 z"/><path fill="none" opacity="1" stroke="none" d=" M1042.8,156.6 C1069.2,147.8 1092.2,166.8 1089.7,194.9 C1088.6,207 1084.2,217.3 1073.8,224.1 C1052.4,238.2 1024.3,223.7 1022.1,197.3 C1021.7,191.4 1021.9,185.2 1023.3,179.5 C1025.8,169 1032.2,161.1 1042.8,156.6 z"/><path fill="none" opacity="1" stroke="none" d=" M811.6,205.3 C805.6,222 791.7,231.2 775.9,229.3 C759.7,227.3 747.6,214.3 745.9,197.4 C745.1,189.2 745.6,181.1 749.1,173.5 C755.4,159.9 770,152 784.2,154.3 C799.5,156.8 811.5,169 812.8,184.6 C813.4,191.3 812.1,198.1 811.6,205.3 z"/><path fill="none" opacity="1" stroke="none" d=" M1571.4,214.2 C1562.5,226.8 1549,232.1 1535.5,228.6 C1521.9,225 1511.3,212.9 1510.2,198.4 C1509.6,191.7 1509.8,184.6 1511.5,178.2 C1515.7,162.4 1530.7,152.6 1546.7,154.1 C1562.1,155.6 1574.9,168.2 1576.9,184.1 C1578.3,194.6 1577.3,204.7 1571.4,214.2 z"/><path fill="none" opacity="1" stroke="none" d=" M1180.8,156.6 C1207.8,147.6 1231.1,167.6 1227.6,196.3 C1226.2,208 1221.7,217.8 1211.6,224.3 C1197.2,233.7 1178.3,230.3 1167.8,216.6 C1152.7,196.9 1159.1,166.7 1180.8,156.6 z"/><path fill="none" opacity="1" stroke="none" d=" M679.7,169.6 C680.8,173.7 681.7,177.4 682.7,181.6 C661.5,181.6 641.3,181.6 621.1,181.6 C621,169.3 630.6,157.6 643.1,154.4 C657.4,150.6 672.3,156.7 679.7,169.6 z"/><path fill="none" opacity="1" stroke="none" d=" M884.9,180.2 C890.6,161.6 906.2,151.2 923.1,154.4 C941.2,157.9 952.9,174.1 951.6,193.8 C950.5,210.7 941.8,223.3 928.3,227.9 C907.8,234.8 886.2,220.3 884.1,197.9 C883.6,192.2 884.6,186.4 884.9,180.2 z"/><path fill="#08455D" opacity="1" stroke="none" d=" M113.7,331.2 C117.2,332.9 115.5,334.6 113.7,335.4 C112.6,335.9 110.9,334.9 109.5,334.6 C110.3,333.6 111.1,332.5 112,331.5 C112.3,331.2 112.9,331.3 113.7,331.2 z"/><path fill="#083F56" opacity="1" stroke="none" d=" M262,323.7 C261.9,323.5 262.2,323.3 262.7,323 C262.8,323.2 262.5,323.5 262,323.7 z"/><path fill="#083F56" opacity="1" stroke="none" d=" M109,326.1 C109.2,325.9 109.3,325.9 109.7,326.1 C109.7,326.2 109.4,326.2 109,326.1 z"/><path fill="#08455D" opacity="1" stroke="none" d=" M68.2,295.1 C68.4,295 68.7,295.2 69,295.7 C68.8,295.7 68.6,295.5 68.2,295.1 z"/><path fill="#08455D" opacity="1" stroke="none" d=" M69.2,296.1 C69.4,296.1 69.7,296.2 70.1,296.7 C69.8,296.8 69.6,296.6 69.2,296.1 z"/><path fill="#08455D" opacity="1" stroke="none" d=" M67.2,294.1 C67.4,294 67.7,294.2 68.1,294.7 C67.9,294.7 67.6,294.5 67.2,294.1 z"/><path fill="#08455D" opacity="1" stroke="none" d=" M66.2,293.1 C66.4,293 66.7,293.2 67.1,293.7 C66.9,293.7 66.6,293.5 66.2,293.1 z"/><path fill="#08455D" opacity="1" stroke="none" d=" M65.2,292 C65.4,292 65.7,292.2 66.1,292.6 C65.9,292.7 65.6,292.5 65.2,292 z"/><path fill="#08455D" opacity="1" stroke="none" d=" M64.2,291 C64.5,290.9 64.8,291.1 65.1,291.6 C64.9,291.7 64.6,291.5 64.2,291 z"/><path fill="#08455D" opacity="1" stroke="none" d=" M63.2,289.8 C63.4,289.7 63.8,290 64.2,290.6 C63.9,290.6 63.6,290.4 63.2,289.8 z"/><path fill="#0A4860" opacity="1" stroke="none" d=" M299.2,293.9 C299.2,293.7 299.4,293.4 299.8,293.1 C299.9,293.3 299.7,293.6 299.2,293.9 z"/><path fill="#0A4860" opacity="1" stroke="none" d=" M301.2,291.9 C301.1,291.7 301.3,291.4 301.7,291 C301.8,291.2 301.6,291.5 301.2,291.9 z"/><path fill="#0A5B76" opacity="1" stroke="none" d=" M339.1,221.9 C339.3,219.4 339.8,216.7 340.6,213.7 C340.4,216.2 340,218.9 339.1,221.9 z"/><path fill="#186D88" opacity="1" stroke="none" d=" M342.3,203.8 C342.1,203.5 342.1,203.1 342.2,202.3 C342.4,202.6 342.4,203.1 342.3,203.8 z"/><path fill="#C4252D" opacity="1" stroke="none" d=" M189.7,242.8 C185.2,246.8 181.3,245.8 177,243 C156,229.1 136.1,214.1 122.4,192.4 C112.5,176.8 108.9,160.4 117,142.7 C127,120.5 150.6,112.1 170.9,124.2 C176,127.2 179.7,132.5 184.2,136.9 C184.5,136.5 185.6,135.4 186.1,134.1 C192.7,119.2 218.5,114 233.5,123.8 C251.3,135.5 258.6,157.4 251.3,178.3 C246.8,190.9 239.6,202 229.7,210.8 C217,222 203.3,232.1 189.7,242.8 z"/><path fill="#196B84" opacity="1" stroke="none" d=" M234.1,96 C235.6,99.2 236.9,101.9 238.2,104.7 C225.6,111.3 137.9,111.1 128.3,104.4 C141.4,78.7 159.9,57.7 183.2,39.7 C204.3,54.4 219.7,74.5 234.1,96 z"/><path fill="#033B53" opacity="1" stroke="none" d=" M226.3,260.6 C230.5,261.1 234.3,261.6 238.7,262.1 C236.9,265.7 235.6,268.7 233.9,271.5 C222.1,291 207.6,308.2 190.3,323.1 C183.8,328.5 183.6,328.7 177.1,323.4 C158.6,308.1 143.7,289.7 131.3,269.1 C130.5,267.7 129.8,266.2 129.2,264.6 C128.9,264 128.9,263.4 128.6,262.1 C161.1,257.1 193.4,257 226.3,260.6 z"/><path fill="#196B84" opacity="1" stroke="none" d=" M98.9,146.8 C97.4,156.9 96,166.6 94.5,176.6 C75.9,176.6 57.3,176.6 38.2,176.6 C38.2,171.9 37.4,166.9 38.3,162.1 C42,141.5 49.6,122.2 60.9,104.5 C62.3,102.3 63.5,101.8 66.1,102.7 C79.6,107.4 93.1,111.7 107.1,116.4 C104.5,126 101.7,136.2 98.9,146.8 z"/><path fill="#196B84" opacity="1" stroke="none" d=" M318.4,128.7 C324.4,144.3 329.9,159.5 328.9,176.6 C309.9,176.6 291.2,176.6 273.4,176.6 C269,156.1 264.7,135.8 260.5,115.8 C273.6,111.7 287.2,107.4 300.7,103.1 C303.4,102.2 305.1,102.7 306.4,105.3 C310.3,113 314.3,120.7 318.4,128.7 z"/><path fill="#084E65" opacity="1" stroke="none" d=" M44.9,230.1 C40.6,217.3 38,204.7 37.8,191.2 C56.8,191.2 75.6,191.2 93.5,191.2 C97.7,211.7 101.9,231.8 106,251.6 C92.8,255.9 79,260.5 65.1,264.8 C63.9,265.2 61.1,263.9 60.5,262.7 C55.5,253.1 50.8,243.4 46.1,233.8 C45.6,232.7 45.4,231.6 44.9,230.1 z"/><path fill="#074E65" opacity="1" stroke="none" d=" M307.5,260.5 C306.4,262.4 305.6,264 304.7,265.7 C289.8,261.1 275,256.5 260.6,252 C264.9,231.7 269.1,211.7 273.4,191.1 C290.9,191.1 309.6,191.1 329.1,191.1 C328.2,216.2 320.6,239 307.5,260.5 z"/><path fill="#053C53" opacity="1" stroke="none" d=" M284.6,273.3 C288,274.7 291,276 294,277.4 C285.6,296.6 235.6,325.5 207.3,327.2 C208.8,325.4 209.7,324 210.9,322.8 C226.7,307.1 240.2,289.6 250.4,269.8 C252.4,266 254.9,265.1 258.8,266.2 C267.3,268.6 275.8,270.8 284.6,273.3 z"/><path fill="#053C53" opacity="1" stroke="none" d=" M88.5,271.4 C95.6,269.5 102.3,267.7 109.1,266.1 C111.6,265.5 113.7,265.5 115.3,268.5 C126,290 141.3,308.2 157.8,325.4 C158.1,325.8 158.3,326.2 158.6,326.6 C138.6,329.3 84.1,298.4 72.4,277.3 C77.7,275.4 82.9,273.5 88.5,271.4 z"/><path fill="#1C6B84" opacity="1" stroke="none" d=" M114.6,100.9 C113,101.5 111.5,102.2 110.3,101.8 C97.6,98.3 85.1,94.7 72.3,90.1 C95.4,63.4 123.6,46.1 158.8,40.5 C141.7,58.8 125.1,77.4 114.6,100.9 z"/><path fill="#1B6B84" opacity="1" stroke="none" d=" M225.2,59.8 C219.1,53.2 213.3,46.9 207.4,40.4 C232,40.4 280.3,67.8 294.9,90.8 C283.1,94.3 271.7,97.5 260.4,101.1 C254.9,102.8 252.5,100.8 249.6,96.1 C242,83.8 233.5,72.1 225.2,59.8 z"/><path fill="#0C4F65" opacity="1" stroke="none" d=" M117.2,205.7 C128.6,220.9 142.6,232.8 158.4,244.5 C145.6,246.2 133.9,247.6 121.9,249.2 C114.5,232.1 110.4,214.6 108.9,196.4 C109.3,196.2 109.7,196 110.1,195.8 C112.4,199 114.7,202.2 117.2,205.7 z"/><path fill="#0D4F66" opacity="1" stroke="none" d=" M256.7,194.7 C255.8,203.3 255.4,211.9 253.8,220.3 C252.2,228.4 249.4,236.2 247.1,244.2 C246.1,247.5 244.5,248.9 240.6,248.3 C230.3,246.8 219.9,245.8 208.4,244.5 C227.5,230.1 244.8,215.5 256.6,195 C256.8,194.8 256.7,194.7 256.7,194.7 z"/><path fill="#0D4F66" opacity="1" stroke="none" d=" M256.8,194.8 C257,194.8 257.1,194.8 257.3,194.8 C257.2,194.8 257.1,194.8 256.9,194.8 C256.7,194.7 256.8,194.8 256.8,194.8 z"/></svg>
